<svg xmlns="http://www.w3.org/2000/svg" xmlns:xlink="http://www.w3.org/1999/xlink" width="500" zoomAndPan="magnify" viewBox="0 0 375 374.999991" height="500" preserveAspectRatio="xMidYMid meet" version="1.0"><defs><clipPath id="3bafdf0735"><path d="M 21.484375 34 L 353.644531 34 L 353.644531 340.4375 L 21.484375 340.4375 Z M 21.484375 34 " clip-rule="nonzero"/></clipPath><clipPath id="72c49c6048"><path d="M 342.832031 226.394531 L 299.113281 301.542969 C 285.101562 325.625 259.34375 340.4375 231.480469 340.4375 L 143.519531 340.4375 C 115.65625 340.4375 89.898438 325.625 75.886719 301.542969 L 32.167969 226.394531 C 18.175781 202.351562 18.175781 172.648438 32.167969 148.605469 L 75.886719 73.457031 C 89.898438 49.375 115.65625 34.5625 143.519531 34.5625 L 231.480469 34.5625 C 259.34375 34.5625 285.101562 49.375 299.113281 73.457031 L 342.832031 148.605469 C 356.824219 172.648438 356.824219 202.351562 342.832031 226.394531 Z M 342.832031 226.394531 " clip-rule="nonzero"/></clipPath><clipPath id="7cad10e649"><path d="M 21 34.5625 L 354 34.5625 L 354 340.433594 L 21 340.433594 Z M 21 34.5625 " clip-rule="nonzero"/></clipPath><clipPath id="f4f16cb44e"><path d="M 342.828125 226.394531 L 299.109375 301.539062 C 285.097656 325.617188 259.339844 340.433594 231.476562 340.433594 L 143.515625 340.433594 C 115.65625 340.433594 89.898438 325.617188 75.886719 301.539062 L 32.167969 226.394531 C 18.175781 202.351562 18.175781 172.644531 32.167969 148.601562 L 75.886719 73.457031 C 89.898438 49.378906 115.65625 34.5625 143.515625 34.5625 L 231.476562 34.5625 C 259.339844 34.5625 285.097656 49.378906 299.109375 73.457031 L 342.828125 148.601562 C 356.816406 172.644531 356.816406 202.351562 342.828125 226.394531 Z M 342.828125 226.394531 " clip-rule="nonzero"/></clipPath><clipPath id="0935d56eed"><path d="M 26 218 L 111 218 L 111 301 L 26 301 Z M 26 218 " clip-rule="nonzero"/></clipPath><clipPath id="26cc51507e"><path d="M 81.636719 218.175781 L 110.957031 268.835938 L 55.96875 300.660156 L 26.648438 250 Z M 81.636719 218.175781 " clip-rule="nonzero"/></clipPath><clipPath id="e4560eff23"><path d="M 38 218 L 70 218 L 70 250 L 38 250 Z M 38 218 " clip-rule="nonzero"/></clipPath><clipPath id="fb59873e29"><path d="M 59.578125 213.378906 L 74.636719 239.394531 L 48.617188 254.453125 L 33.5625 228.4375 Z M 59.578125 213.378906 " clip-rule="nonzero"/></clipPath><clipPath id="28e10604df"><path d="M 59.578125 213.378906 L 74.636719 239.394531 L 48.617188 254.453125 L 33.5625 228.4375 Z M 59.578125 213.378906 " clip-rule="nonzero"/></clipPath><clipPath id="83e9a1475e"><path d="M 68 269 L 99 269 L 99 300 L 68 300 Z M 68 269 " clip-rule="nonzero"/></clipPath><clipPath id="c777762fdd"><path d="M 88.929688 264.09375 L 103.984375 290.109375 L 77.96875 305.167969 L 62.910156 279.148438 Z M 88.929688 264.09375 " clip-rule="nonzero"/></clipPath><clipPath id="539e308667"><path d="M 88.929688 264.09375 L 103.984375 290.109375 L 77.96875 305.167969 L 62.910156 279.148438 Z M 88.929688 264.09375 " clip-rule="nonzero"/></clipPath><clipPath id="f50b0084fb"><path d="M 269 84 L 355 84 L 355 167 L 269 167 Z M 269 84 " clip-rule="nonzero"/></clipPath><clipPath id="42b6f775e0"><path d="M 324.972656 84.464844 L 354.292969 135.125 L 299.304688 166.949219 L 269.984375 116.292969 Z M 324.972656 84.464844 " clip-rule="nonzero"/></clipPath><clipPath id="9ed0a6d8dd"><path d="M 282 85 L 313 85 L 313 116 L 282 116 Z M 282 85 " clip-rule="nonzero"/></clipPath><clipPath id="f02f2046e7"><path d="M 302.914062 79.667969 L 317.96875 105.6875 L 291.953125 120.742188 L 276.894531 94.726562 Z M 302.914062 79.667969 " clip-rule="nonzero"/></clipPath><clipPath id="355884a8ec"><path d="M 302.914062 79.667969 L 317.96875 105.6875 L 291.953125 120.742188 L 276.894531 94.726562 Z M 302.914062 79.667969 " clip-rule="nonzero"/></clipPath><clipPath id="fec4e2b4b4"><path d="M 311 135 L 342 135 L 342 167 L 311 167 Z M 311 135 " clip-rule="nonzero"/></clipPath><clipPath id="49dce30cb1"><path d="M 332.261719 130.382812 L 347.320312 156.398438 L 321.304688 171.457031 L 306.246094 145.4375 Z M 332.261719 130.382812 " clip-rule="nonzero"/></clipPath><clipPath id="4102e39c1f"><path d="M 332.261719 130.382812 L 347.320312 156.398438 L 321.304688 171.457031 L 306.246094 145.4375 Z M 332.261719 130.382812 " clip-rule="nonzero"/></clipPath><clipPath id="023700a79a"><path d="M 168.179688 114.226562 L 206.714844 114.226562 L 206.714844 217 L 168.179688 217 Z M 168.179688 114.226562 " clip-rule="nonzero"/></clipPath><clipPath id="d69d72b870"><path d="M 172 231 L 203 231 L 203 260.476562 L 172 260.476562 Z M 172 231 " clip-rule="nonzero"/></clipPath></defs><rect x="-37.5" width="450" fill="#ffffff" y="-37.499999" height="449.999989" fill-opacity="1"/><rect x="-37.5" width="450" fill="#f2f2f2" y="-37.499999" height="449.999989" fill-opacity="1"/><g clip-path="url(#3bafdf0735)"><g clip-path="url(#72c49c6048)"><path fill="#f2f2f2" d="M 9.535156 34.5625 L 365.59375 34.5625 L 365.59375 340.4375 L 9.535156 340.4375 Z M 9.535156 34.5625 " fill-opacity="1" fill-rule="nonzero"/></g></g><g clip-path="url(#7cad10e649)"><g clip-path="url(#f4f16cb44e)"><path stroke-linecap="butt" transform="matrix(0.75, 0, 0, 0.75, 9.536221, 34.562766)" fill="none" stroke-linejoin="miter" d="M 444.389235 255.775703 L 386.097564 355.968418 C 367.415271 388.072587 333.071519 407.827797 295.920475 407.827797 L 178.639217 407.827797 C 141.493381 407.827797 107.149629 388.072587 88.467336 355.968418 L 30.175666 255.775703 C 11.519414 223.71841 11.519414 184.109032 30.175666 152.051738 L 88.467336 51.859023 C 107.149629 19.754854 141.493381 -0.000355161 178.639217 -0.000355161 L 295.920475 -0.000355161 C 333.071519 -0.000355161 367.415271 19.754854 386.097564 51.859023 L 444.389235 152.051738 C 463.040277 184.109032 463.040277 223.71841 444.389235 255.775703 Z M 444.389235 255.775703 " stroke="#0062ff" stroke-width="80" stroke-opacity="1" stroke-miterlimit="4"/></g></g><g clip-path="url(#0935d56eed)"><g clip-path="url(#26cc51507e)"><path fill="#f2f2f2" d="M 81.636719 218.175781 L 110.957031 268.835938 L 55.945312 300.675781 L 26.625 250.015625 Z M 81.636719 218.175781 " fill-opacity="1" fill-rule="nonzero"/></g></g><g clip-path="url(#e4560eff23)"><g clip-path="url(#fb59873e29)"><g clip-path="url(#28e10604df)"><path fill="#0062ff" d="M 67.160156 226.480469 C 71.351562 233.71875 68.878906 242.976562 61.640625 247.164062 C 54.40625 251.355469 45.144531 248.882812 40.957031 241.644531 C 36.769531 234.410156 39.238281 225.148438 46.476562 220.960938 C 53.714844 216.773438 62.972656 219.242188 67.160156 226.480469 Z M 67.160156 226.480469 " fill-opacity="1" fill-rule="nonzero"/></g></g></g><g clip-path="url(#83e9a1475e)"><g clip-path="url(#c777762fdd)"><g clip-path="url(#539e308667)"><path fill="#0062ff" d="M 96.511719 277.195312 C 100.699219 284.429688 98.230469 293.691406 90.992188 297.878906 C 83.753906 302.066406 74.496094 299.597656 70.308594 292.359375 C 66.117188 285.121094 68.589844 275.863281 75.828125 271.675781 C 83.0625 267.484375 92.324219 269.957031 96.511719 277.195312 Z M 96.511719 277.195312 " fill-opacity="1" fill-rule="nonzero"/></g></g></g><g clip-path="url(#f50b0084fb)"><g clip-path="url(#42b6f775e0)"><path fill="#f2f2f2" d="M 324.972656 84.464844 L 354.292969 135.125 L 299.277344 166.964844 L 269.960938 116.304688 Z M 324.972656 84.464844 " fill-opacity="1" fill-rule="nonzero"/></g></g><g clip-path="url(#9ed0a6d8dd)"><g clip-path="url(#f02f2046e7)"><g clip-path="url(#355884a8ec)"><path fill="#0062ff" d="M 310.496094 92.769531 C 314.683594 100.007812 312.214844 109.265625 304.976562 113.453125 C 297.738281 117.644531 288.480469 115.171875 284.292969 107.9375 C 280.101562 100.699219 282.574219 91.441406 289.8125 87.25 C 297.046875 83.0625 306.308594 85.53125 310.496094 92.769531 Z M 310.496094 92.769531 " fill-opacity="1" fill-rule="nonzero"/></g></g></g><g clip-path="url(#fec4e2b4b4)"><g clip-path="url(#49dce30cb1)"><g clip-path="url(#4102e39c1f)"><path fill="#0062ff" d="M 339.847656 143.484375 C 344.035156 150.71875 341.5625 159.980469 334.328125 164.167969 C 327.089844 168.355469 317.832031 165.886719 313.640625 158.648438 C 309.453125 151.410156 311.921875 142.152344 319.160156 137.964844 C 326.398438 133.773438 335.65625 136.246094 339.847656 143.484375 Z M 339.847656 143.484375 " fill-opacity="1" fill-rule="nonzero"/></g></g></g><g clip-path="url(#023700a79a)"><path fill="#0062ff" d="M 187.421875 114.226562 C 175.800781 114.226562 166.800781 124.464844 168.359375 136.003906 L 179.144531 209.535156 C 179.691406 213.683594 183.242188 216.808594 187.445312 216.808594 C 191.636719 216.808594 195.1875 213.683594 195.757812 209.535156 L 206.542969 136.003906 C 208.039062 124.464844 199.050781 114.226562 187.421875 114.226562 " fill-opacity="1" fill-rule="nonzero"/></g><g clip-path="url(#d69d72b870)"><path fill="#0062ff" d="M 187.421875 231.457031 C 179.316406 231.457031 172.769531 238.015625 172.769531 246.117188 C 172.769531 254.210938 179.316406 260.769531 187.421875 260.769531 C 195.523438 260.769531 202.070312 254.210938 202.070312 246.117188 C 202.070312 238.015625 195.523438 231.457031 187.421875 231.457031 " fill-opacity="1" fill-rule="nonzero"/></g></svg>