<svg xmlns="http://www.w3.org/2000/svg" xmlns:xlink="http://www.w3.org/1999/xlink" width="500" zoomAndPan="magnify" viewBox="0 0 375 374.999991" height="500" preserveAspectRatio="xMidYMid meet" version="1.0"><defs fill="#000000"><clipPath id="3bcf73d504" fill="#000000"><path d="M 21 34.5625 L 354 34.5625 L 354 340.433594 L 21 340.433594 Z M 21 34.5625 " clip-rule="nonzero" fill="#000000"/></clipPath><clipPath id="3bdd613509" fill="#000000"><path d="M 342.828125 226.394531 L 299.109375 301.539062 C 285.097656 325.617188 259.339844 340.433594 231.476562 340.433594 L 143.515625 340.433594 C 115.65625 340.433594 89.898438 325.617188 75.886719 301.539062 L 32.167969 226.394531 C 18.175781 202.351562 18.175781 172.644531 32.167969 148.601562 L 75.886719 73.457031 C 89.898438 49.378906 115.65625 34.5625 143.515625 34.5625 L 231.476562 34.5625 C 259.339844 34.5625 285.097656 49.378906 299.109375 73.457031 L 342.828125 148.601562 C 356.816406 172.644531 356.816406 202.351562 342.828125 226.394531 Z M 342.828125 226.394531 " clip-rule="nonzero" fill="#000000"/></clipPath><clipPath id="fe793ecc0b" fill="#000000"><path d="M 26 218 L 111 218 L 111 301 L 26 301 Z M 26 218 " clip-rule="nonzero" fill="#000000"/></clipPath><clipPath id="8e5056c016" fill="#000000"><path d="M 81.636719 218.179688 L 110.957031 268.835938 L 55.96875 300.660156 L 26.648438 250.003906 Z M 81.636719 218.179688 " clip-rule="nonzero" fill="#000000"/></clipPath><clipPath id="62af1ca3b9" fill="#000000"><path d="M 38 218 L 70 218 L 70 250 L 38 250 Z M 38 218 " clip-rule="nonzero" fill="#000000"/></clipPath><clipPath id="3186cff68f" fill="#000000"><path d="M 59.578125 213.378906 L 74.636719 239.398438 L 48.617188 254.457031 L 33.5625 228.4375 Z M 59.578125 213.378906 " clip-rule="nonzero" fill="#000000"/></clipPath><clipPath id="1c266abee1" fill="#000000"><path d="M 59.578125 213.378906 L 74.636719 239.398438 L 48.617188 254.457031 L 33.5625 228.4375 Z M 59.578125 213.378906 " clip-rule="nonzero" fill="#000000"/></clipPath><clipPath id="969f98aea9" fill="#000000"><path d="M 68 269 L 99 269 L 99 300 L 68 300 Z M 68 269 " clip-rule="nonzero" fill="#000000"/></clipPath><clipPath id="723d7aa363" fill="#000000"><path d="M 88.929688 264.09375 L 103.984375 290.109375 L 77.96875 305.167969 L 62.910156 279.152344 Z M 88.929688 264.09375 " clip-rule="nonzero" fill="#000000"/></clipPath><clipPath id="a13c895723" fill="#000000"><path d="M 88.929688 264.09375 L 103.984375 290.109375 L 77.96875 305.167969 L 62.910156 279.152344 Z M 88.929688 264.09375 " clip-rule="nonzero" fill="#000000"/></clipPath><clipPath id="c81e4f63bd" fill="#000000"><path d="M 269 84 L 355 84 L 355 167 L 269 167 Z M 269 84 " clip-rule="nonzero" fill="#000000"/></clipPath><clipPath id="48bf53fe66" fill="#000000"><path d="M 324.972656 84.46875 L 354.292969 135.125 L 299.300781 166.949219 L 269.984375 116.292969 Z M 324.972656 84.46875 " clip-rule="nonzero" fill="#000000"/></clipPath><clipPath id="412a77b9ba" fill="#000000"><path d="M 282 85 L 313 85 L 313 116 L 282 116 Z M 282 85 " clip-rule="nonzero" fill="#000000"/></clipPath><clipPath id="5bc6124d56" fill="#000000"><path d="M 302.914062 79.667969 L 317.96875 105.6875 L 291.953125 120.746094 L 276.894531 94.726562 Z M 302.914062 79.667969 " clip-rule="nonzero" fill="#000000"/></clipPath><clipPath id="b5d2198079" fill="#000000"><path d="M 302.914062 79.667969 L 317.96875 105.6875 L 291.953125 120.746094 L 276.894531 94.726562 Z M 302.914062 79.667969 " clip-rule="nonzero" fill="#000000"/></clipPath><clipPath id="2918f06e09" fill="#000000"><path d="M 311 135 L 342 135 L 342 167 L 311 167 Z M 311 135 " clip-rule="nonzero" fill="#000000"/></clipPath><clipPath id="ee41cb866c" fill="#000000"><path d="M 332.261719 130.382812 L 347.320312 156.398438 L 321.304688 171.457031 L 306.246094 145.441406 Z M 332.261719 130.382812 " clip-rule="nonzero" fill="#000000"/></clipPath><clipPath id="6b00b18b24" fill="#000000"><path d="M 332.261719 130.382812 L 347.320312 156.398438 L 321.304688 171.457031 L 306.246094 145.441406 Z M 332.261719 130.382812 " clip-rule="nonzero" fill="#000000"/></clipPath><clipPath id="caf4abb35e" fill="#000000"><path d="M 168.179688 114.226562 L 206.714844 114.226562 L 206.714844 217 L 168.179688 217 Z M 168.179688 114.226562 " clip-rule="nonzero" fill="#000000"/></clipPath><clipPath id="1cc7f5afc0" fill="#000000"><path d="M 172 231 L 203 231 L 203 260.476562 L 172 260.476562 Z M 172 231 " clip-rule="nonzero" fill="#000000"/></clipPath></defs><g clip-path="url(#3bcf73d504)"><g clip-path="url(#3bdd613509)"><path stroke-linecap="butt" transform="matrix(0.75, 0, 0, 0.75, 9.536221, 34.562737)" fill="none" stroke-linejoin="miter" d="M 444.389235 255.775742 L 386.097564 355.968457 C 367.415271 388.072626 333.071519 407.827836 295.920475 407.827836 L 178.639217 407.827836 C 141.493381 407.827836 107.149629 388.072626 88.467336 355.968457 L 30.175666 255.775742 C 11.519414 223.718449 11.519414 184.109071 30.175666 152.051777 L 88.467336 51.859062 C 107.149629 19.754894 141.493381 -0.000316121 178.639217 -0.000316121 L 295.920475 -0.000316121 C 333.071519 -0.000316121 367.415271 19.754894 386.097564 51.859062 L 444.389235 152.051777 C 463.040277 184.109071 463.040277 223.718449 444.389235 255.775742 Z M 444.389235 255.775742 " stroke="#0062ff" stroke-width="80" stroke-opacity="1" stroke-miterlimit="4"/></g></g><g clip-path="url(#fe793ecc0b)"><g clip-path="url(#8e5056c016)"><path fill="#ffffff" d="M 81.636719 218.179688 L 110.957031 268.835938 L 55.945312 300.675781 L 26.625 250.015625 Z M 81.636719 218.179688 " fill-opacity="1" fill-rule="nonzero"/></g></g><g clip-path="url(#62af1ca3b9)"><g clip-path="url(#3186cff68f)"><g clip-path="url(#1c266abee1)"><path fill="#0062ff" d="M 67.160156 226.480469 C 71.351562 233.71875 68.878906 242.976562 61.640625 247.167969 C 54.40625 251.355469 45.144531 248.886719 40.957031 241.648438 C 36.769531 234.410156 39.238281 225.152344 46.476562 220.960938 C 53.714844 216.773438 62.972656 219.246094 67.160156 226.480469 Z M 67.160156 226.480469 " fill-opacity="1" fill-rule="nonzero"/></g></g></g><g clip-path="url(#969f98aea9)"><g clip-path="url(#723d7aa363)"><g clip-path="url(#a13c895723)"><path fill="#0062ff" d="M 96.511719 277.195312 C 100.699219 284.433594 98.230469 293.691406 90.992188 297.878906 C 83.753906 302.066406 74.496094 299.597656 70.308594 292.359375 C 66.117188 285.121094 68.589844 275.863281 75.828125 271.675781 C 83.0625 267.488281 92.324219 269.957031 96.511719 277.195312 Z M 96.511719 277.195312 " fill-opacity="1" fill-rule="nonzero"/></g></g></g><g clip-path="url(#c81e4f63bd)"><g clip-path="url(#48bf53fe66)"><path fill="#ffffff" d="M 324.972656 84.46875 L 354.292969 135.125 L 299.277344 166.964844 L 269.960938 116.304688 Z M 324.972656 84.46875 " fill-opacity="1" fill-rule="nonzero"/></g></g><g clip-path="url(#412a77b9ba)"><g clip-path="url(#5bc6124d56)"><g clip-path="url(#b5d2198079)"><path fill="#0062ff" d="M 310.496094 92.773438 C 314.683594 100.007812 312.214844 109.265625 304.976562 113.457031 C 297.738281 117.644531 288.480469 115.175781 284.292969 107.9375 C 280.101562 100.699219 282.574219 91.441406 289.8125 87.253906 C 297.046875 83.0625 306.304688 85.535156 310.496094 92.773438 Z M 310.496094 92.773438 " fill-opacity="1" fill-rule="nonzero"/></g></g></g><g clip-path="url(#2918f06e09)"><g clip-path="url(#ee41cb866c)"><g clip-path="url(#6b00b18b24)"><path fill="#0062ff" d="M 339.84375 143.484375 C 344.035156 150.722656 341.5625 159.980469 334.324219 164.167969 C 327.089844 168.359375 317.832031 165.886719 313.640625 158.648438 C 309.453125 151.414062 311.921875 142.152344 319.160156 137.964844 C 326.398438 133.777344 335.65625 136.246094 339.84375 143.484375 Z M 339.84375 143.484375 " fill-opacity="1" fill-rule="nonzero"/></g></g></g><g clip-path="url(#caf4abb35e)"><path fill="#0062ff" d="M 187.421875 114.226562 C 175.800781 114.226562 166.800781 124.464844 168.359375 136.003906 L 179.144531 209.535156 C 179.691406 213.683594 183.242188 216.808594 187.445312 216.808594 C 191.636719 216.808594 195.1875 213.683594 195.757812 209.535156 L 206.542969 136.003906 C 208.039062 124.464844 199.050781 114.226562 187.421875 114.226562 " fill-opacity="1" fill-rule="nonzero"/></g><g clip-path="url(#1cc7f5afc0)"><path fill="#0062ff" d="M 187.421875 231.457031 C 179.316406 231.457031 172.769531 238.015625 172.769531 246.117188 C 172.769531 254.210938 179.316406 260.769531 187.421875 260.769531 C 195.523438 260.769531 202.070312 254.210938 202.070312 246.117188 C 202.070312 238.015625 195.523438 231.457031 187.421875 231.457031 " fill-opacity="1" fill-rule="nonzero"/></g></svg>