<svg xmlns="http://www.w3.org/2000/svg" xmlns:xlink="http://www.w3.org/1999/xlink" width="3000" zoomAndPan="magnify" viewBox="0 0 2250 2250.000011" height="3000" preserveAspectRatio="xMidYMid meet" version="1.0"><path fill="#0062ff" d="M 211.90625 206.90625 C 193.914062 224.898438 180.417969 427.308594 180.417969 661.207031 L 180.417969 1079.519531 L 2074.078125 1079.519531 L 2060.585938 638.714844 L 2047.089844 202.410156 L 1142.992188 188.917969 C 648.210938 184.417969 229.898438 193.414062 211.90625 206.90625 Z M 832.628906 454.296875 C 877.609375 526.265625 819.136719 557.753906 751.664062 499.277344 C 648.210938 418.3125 540.261719 490.28125 540.261719 634.21875 C 540.261719 778.152344 625.722656 841.125 756.164062 787.148438 C 828.132812 751.167969 828.132812 751.167969 756.164062 733.175781 C 634.71875 701.6875 661.707031 629.71875 787.648438 629.71875 C 909.097656 629.71875 927.089844 674.699219 855.121094 814.136719 C 801.144531 913.09375 589.738281 931.085938 504.277344 845.625 C 472.789062 814.136719 450.300781 728.675781 450.300781 652.210938 C 450.300781 575.746094 472.789062 490.28125 504.277344 458.796875 C 571.746094 391.324219 792.148438 386.828125 832.628906 454.296875 Z M 1327.410156 562.25 C 1327.410156 674.699219 1309.417969 697.191406 1205.964844 710.683594 C 1116.003906 719.679688 1080.019531 751.167969 1080.019531 814.136719 C 1080.019531 859.117188 1062.027344 899.601562 1035.039062 899.601562 C 1012.550781 899.601562 990.058594 787.148438 990.058594 647.710938 L 990.058594 400.320312 L 1160.984375 413.816406 C 1313.914062 427.308594 1327.410156 440.804688 1327.410156 562.25 Z M 1759.21875 652.210938 C 1844.679688 881.609375 1835.683594 980.5625 1736.726562 841.125 C 1664.761719 746.667969 1534.316406 742.171875 1502.832031 832.128906 C 1462.351562 940.082031 1385.882812 913.09375 1421.867188 800.644531 C 1493.835938 562.25 1583.796875 400.320312 1628.777344 413.816406 C 1651.265625 422.8125 1714.238281 530.765625 1759.21875 652.210938 Z M 1759.21875 652.210938 " fill-opacity="1" fill-rule="nonzero"/><path fill="#0062ff" d="M 1080.019531 562.25 C 1080.019531 634.21875 1107.007812 674.699219 1147.488281 674.699219 C 1241.949219 674.699219 1286.929688 539.761719 1210.460938 490.28125 C 1107.007812 427.308594 1080.019531 440.804688 1080.019531 562.25 Z M 1080.019531 562.25 " fill-opacity="1" fill-rule="nonzero"/><path fill="#0062ff" d="M 1574.800781 629.71875 C 1574.800781 679.199219 1597.289062 719.679688 1619.78125 719.679688 C 1646.769531 719.679688 1664.761719 679.199219 1664.761719 629.71875 C 1664.761719 580.242188 1646.769531 539.761719 1619.78125 539.761719 C 1597.289062 539.761719 1574.800781 580.242188 1574.800781 629.71875 Z M 1574.800781 629.71875 " fill-opacity="1" fill-rule="nonzero"/><path fill="#0062ff" d="M 189.414062 1605.785156 L 202.910156 2046.589844 L 643.714844 2060.085938 L 1080.019531 2073.578125 L 1080.019531 1169.480469 L 175.921875 1169.480469 Z M 675.199219 1484.339844 C 675.199219 1542.8125 706.6875 1574.300781 765.160156 1574.300781 C 814.636719 1574.300781 855.121094 1592.292969 855.121094 1619.28125 C 855.121094 1641.769531 814.636719 1664.261719 765.160156 1664.261719 C 706.6875 1664.261719 675.199219 1695.746094 675.199219 1754.21875 C 675.199219 1803.699219 657.207031 1844.179688 630.21875 1844.179688 C 607.730469 1844.179688 585.238281 1803.699219 585.238281 1754.21875 C 585.238281 1695.746094 553.753906 1664.261719 495.28125 1664.261719 C 445.800781 1664.261719 405.320312 1641.769531 405.320312 1619.28125 C 405.320312 1592.292969 445.800781 1574.300781 495.28125 1574.300781 C 553.753906 1574.300781 585.238281 1542.8125 585.238281 1484.339844 C 585.238281 1434.863281 607.730469 1394.378906 630.21875 1394.378906 C 657.207031 1394.378906 675.199219 1434.863281 675.199219 1484.339844 Z M 675.199219 1484.339844 " fill-opacity="1" fill-rule="nonzero"/><path fill="#0062ff" d="M 1169.980469 1619.28125 L 1169.980469 2073.578125 L 1610.785156 2060.085938 L 2047.089844 2046.589844 L 2060.585938 1605.785156 L 2074.078125 1169.480469 L 1169.980469 1169.480469 Z M 1844.679688 1619.28125 C 1844.679688 1641.769531 1745.722656 1664.261719 1619.78125 1664.261719 C 1498.335938 1664.261719 1394.878906 1641.769531 1394.878906 1619.28125 C 1394.878906 1592.292969 1498.335938 1574.300781 1619.78125 1574.300781 C 1745.722656 1574.300781 1844.679688 1592.292969 1844.679688 1619.28125 Z M 1844.679688 1619.28125 " fill-opacity="1" fill-rule="nonzero"/></svg>