<?xml version="1.0" standalone="no"?>
<!DOCTYPE svg PUBLIC "-//W3C//DTD SVG 20010904//EN"
 "http://www.w3.org/TR/2001/REC-SVG-20010904/DTD/svg10.dtd">
<svg version="1.0" xmlns="http://www.w3.org/2000/svg"
 width="50.000000pt" height="50.000000pt" viewBox="0 0 50.000000 50.000000"
 preserveAspectRatio="xMidYMid meet">

<g transform="translate(0.000000,50.000000) scale(0.100000,-0.100000)"
fill="#000000" stroke="none">
<path d="M47 454 c-4 -4 -7 -49 -7 -101 l0 -93 210 0 211 0 -3 98 -3 97 -201
3 c-110 1 -203 -1 -207 -4z m138 -55 c10 -16 -3 -23 -18 -10 -23 18 -47 2 -47
-30 0 -32 19 -46 48 -34 16 8 16 8 0 12 -27 7 -21 23 7 23 27 0 31 -10 15 -41
-12 -22 -59 -26 -78 -7 -7 7 -12 26 -12 43 0 17 5 36 12 43 15 15 64 16 73 1z
m110 -24 c0 -25 -4 -30 -27 -33 -20 -2 -28 -9 -28 -23 0 -10 -4 -19 -10 -19
-5 0 -10 25 -10 56 l0 55 38 -3 c34 -3 37 -6 37 -33z m96 -20 c19 -51 17 -73
-5 -42 -16 21 -45 22 -52 2 -9 -24 -26 -18 -18 7 16 53 36 89 46 86 5 -2 19
-26 29 -53z"/>
<path d="M240 375 c0 -16 6 -25 15 -25 21 0 31 30 14 41 -23 14 -29 11 -29
-16z"/>
<path d="M350 360 c0 -11 5 -20 10 -20 6 0 10 9 10 20 0 11 -4 20 -10 20 -5 0
-10 -9 -10 -20z"/>
<path d="M42 143 l3 -98 98 -3 97 -3 0 101 0 100 -100 0 -101 0 3 -97z m108
27 c0 -13 7 -20 20 -20 11 0 20 -4 20 -10 0 -5 -9 -10 -20 -10 -13 0 -20 -7
-20 -20 0 -11 -4 -20 -10 -20 -5 0 -10 9 -10 20 0 13 -7 20 -20 20 -11 0 -20
5 -20 10 0 6 9 10 20 10 13 0 20 7 20 20 0 11 5 20 10 20 6 0 10 -9 10 -20z"/>
<path d="M260 140 l0 -101 98 3 97 3 3 98 3 97 -101 0 -100 0 0 -100z m150 0
c0 -5 -22 -10 -50 -10 -27 0 -50 5 -50 10 0 6 23 10 50 10 28 0 50 -4 50 -10z"/>
</g>
</svg>
