<svg xmlns="http://www.w3.org/2000/svg" xmlns:xlink="http://www.w3.org/1999/xlink" width="500" zoomAndPan="magnify" viewBox="0 0 375 374.999991" height="500" preserveAspectRatio="xMidYMid meet" version="1.0"><defs><clipPath id="9c0d5c3a0d"><path d="M 21 34.5625 L 354 34.5625 L 354 340.433594 L 21 340.433594 Z M 21 34.5625 " clip-rule="nonzero"/></clipPath><clipPath id="59c5a15b76"><path d="M 342.828125 226.394531 L 299.109375 301.539062 C 285.097656 325.617188 259.339844 340.433594 231.476562 340.433594 L 143.515625 340.433594 C 115.65625 340.433594 89.898438 325.617188 75.886719 301.539062 L 32.167969 226.394531 C 18.175781 202.351562 18.175781 172.644531 32.167969 148.601562 L 75.886719 73.457031 C 89.898438 49.378906 115.65625 34.5625 143.515625 34.5625 L 231.476562 34.5625 C 259.339844 34.5625 285.097656 49.378906 299.109375 73.457031 L 342.828125 148.601562 C 356.816406 172.644531 356.816406 202.351562 342.828125 226.394531 Z M 342.828125 226.394531 " clip-rule="nonzero"/></clipPath><clipPath id="03f06f067e"><path d="M 26 218 L 111 218 L 111 301 L 26 301 Z M 26 218 " clip-rule="nonzero"/></clipPath><clipPath id="5c62a3ed54"><path d="M 81.636719 218.179688 L 110.957031 268.835938 L 55.96875 300.660156 L 26.648438 250.003906 Z M 81.636719 218.179688 " clip-rule="nonzero"/></clipPath><clipPath id="1bb9f20832"><path d="M 38 218 L 70 218 L 70 250 L 38 250 Z M 38 218 " clip-rule="nonzero"/></clipPath><clipPath id="3dc16cce25"><path d="M 59.578125 213.378906 L 74.636719 239.398438 L 48.617188 254.457031 L 33.5625 228.4375 Z M 59.578125 213.378906 " clip-rule="nonzero"/></clipPath><clipPath id="d7470a0a21"><path d="M 59.578125 213.378906 L 74.636719 239.398438 L 48.617188 254.457031 L 33.5625 228.4375 Z M 59.578125 213.378906 " clip-rule="nonzero"/></clipPath><clipPath id="817c81fa1f"><path d="M 68 269 L 99 269 L 99 300 L 68 300 Z M 68 269 " clip-rule="nonzero"/></clipPath><clipPath id="8a5a214132"><path d="M 88.929688 264.09375 L 103.984375 290.109375 L 77.96875 305.167969 L 62.910156 279.152344 Z M 88.929688 264.09375 " clip-rule="nonzero"/></clipPath><clipPath id="f75819374d"><path d="M 88.929688 264.09375 L 103.984375 290.109375 L 77.96875 305.167969 L 62.910156 279.152344 Z M 88.929688 264.09375 " clip-rule="nonzero"/></clipPath><clipPath id="47f77a6d50"><path d="M 142.53125 114.230469 L 232.53125 114.230469 L 232.53125 219 L 142.53125 219 Z M 142.53125 114.230469 " clip-rule="nonzero"/></clipPath><clipPath id="79ec8782f1"><path d="M 168 228 L 201 228 L 201 260.480469 L 168 260.480469 Z M 168 228 " clip-rule="nonzero"/></clipPath><clipPath id="a6cd5a7bd1"><path d="M 269 84 L 355 84 L 355 167 L 269 167 Z M 269 84 " clip-rule="nonzero"/></clipPath><clipPath id="211e744216"><path d="M 324.972656 84.46875 L 354.292969 135.125 L 299.300781 166.949219 L 269.984375 116.292969 Z M 324.972656 84.46875 " clip-rule="nonzero"/></clipPath><clipPath id="e312215c79"><path d="M 282 85 L 313 85 L 313 116 L 282 116 Z M 282 85 " clip-rule="nonzero"/></clipPath><clipPath id="33b9e517bd"><path d="M 302.914062 79.667969 L 317.96875 105.6875 L 291.953125 120.746094 L 276.894531 94.726562 Z M 302.914062 79.667969 " clip-rule="nonzero"/></clipPath><clipPath id="d914f7a6dc"><path d="M 302.914062 79.667969 L 317.96875 105.6875 L 291.953125 120.746094 L 276.894531 94.726562 Z M 302.914062 79.667969 " clip-rule="nonzero"/></clipPath><clipPath id="b25fa4d486"><path d="M 311 135 L 342 135 L 342 167 L 311 167 Z M 311 135 " clip-rule="nonzero"/></clipPath><clipPath id="ad897bc8ea"><path d="M 332.261719 130.382812 L 347.320312 156.398438 L 321.304688 171.457031 L 306.246094 145.441406 Z M 332.261719 130.382812 " clip-rule="nonzero"/></clipPath><clipPath id="978c855258"><path d="M 332.261719 130.382812 L 347.320312 156.398438 L 321.304688 171.457031 L 306.246094 145.441406 Z M 332.261719 130.382812 " clip-rule="nonzero"/></clipPath></defs><g clip-path="url(#9c0d5c3a0d)"><g clip-path="url(#59c5a15b76)"><path stroke-linecap="butt" transform="matrix(0.75, 0, 0, 0.75, 9.536221, 34.562737)" fill="none" stroke-linejoin="miter" d="M 444.389235 255.775742 L 386.097564 355.968457 C 367.415271 388.072626 333.071519 407.827836 295.920475 407.827836 L 178.639217 407.827836 C 141.493381 407.827836 107.149629 388.072626 88.467336 355.968457 L 30.175666 255.775742 C 11.519414 223.718449 11.519414 184.109071 30.175666 152.051777 L 88.467336 51.859062 C 107.149629 19.754894 141.493381 -0.000316121 178.639217 -0.000316121 L 295.920475 -0.000316121 C 333.071519 -0.000316121 367.415271 19.754894 386.097564 51.859062 L 444.389235 152.051777 C 463.040277 184.109071 463.040277 223.718449 444.389235 255.775742 Z M 444.389235 255.775742 " stroke="#0062ff" stroke-width="80" stroke-opacity="1" stroke-miterlimit="4"/></g></g><g clip-path="url(#03f06f067e)"><g clip-path="url(#5c62a3ed54)"><path fill="#ffffff" d="M 81.636719 218.179688 L 110.957031 268.835938 L 55.945312 300.675781 L 26.625 250.015625 Z M 81.636719 218.179688 " fill-opacity="1" fill-rule="nonzero"/></g></g><g clip-path="url(#1bb9f20832)"><g clip-path="url(#3dc16cce25)"><g clip-path="url(#d7470a0a21)"><path fill="#0062ff" d="M 67.160156 226.480469 C 71.351562 233.71875 68.878906 242.976562 61.640625 247.167969 C 54.40625 251.355469 45.144531 248.886719 40.957031 241.648438 C 36.769531 234.410156 39.238281 225.152344 46.476562 220.960938 C 53.714844 216.773438 62.972656 219.246094 67.160156 226.480469 Z M 67.160156 226.480469 " fill-opacity="1" fill-rule="nonzero"/></g></g></g><g clip-path="url(#817c81fa1f)"><g clip-path="url(#8a5a214132)"><g clip-path="url(#f75819374d)"><path fill="#0062ff" d="M 96.511719 277.195312 C 100.699219 284.433594 98.230469 293.691406 90.992188 297.878906 C 83.753906 302.066406 74.496094 299.597656 70.308594 292.359375 C 66.117188 285.121094 68.589844 275.863281 75.828125 271.675781 C 83.0625 267.488281 92.324219 269.957031 96.511719 277.195312 Z M 96.511719 277.195312 " fill-opacity="1" fill-rule="nonzero"/></g></g></g><g clip-path="url(#47f77a6d50)"><path fill="#0062ff" d="M 226.515625 131.226562 C 222.648438 125.71875 217.316406 121.496094 210.515625 118.597656 C 203.746094 115.695312 195.921875 114.230469 187.070312 114.230469 C 179.011719 114.230469 171.65625 115.667969 165.003906 118.539062 C 158.351562 121.378906 152.988281 125.746094 148.941406 131.519531 C 145.71875 136.121094 143.726562 141.691406 142.90625 148.226562 C 142.554688 151.066406 144.8125 153.589844 147.683594 153.589844 L 165.5 153.589844 C 167.785156 153.589844 169.722656 151.976562 170.21875 149.75 C 170.660156 147.757812 171.390625 145.96875 172.417969 144.445312 C 174.058594 141.984375 176.167969 140.109375 178.746094 138.847656 C 181.328125 137.585938 184.050781 136.941406 186.953125 136.941406 C 189.941406 136.941406 192.636719 137.558594 195.128906 138.816406 C 197.589844 140.050781 199.554688 141.835938 201.019531 144.152344 C 202.484375 146.46875 203.21875 149.132812 203.21875 152.210938 C 203.21875 155.113281 202.574219 157.71875 201.285156 160.035156 C 199.996094 162.351562 198.265625 164.492188 196.097656 166.394531 C 193.898438 168.328125 191.464844 170.144531 188.710938 171.933594 C 185.019531 174.25 181.855469 176.828125 179.246094 179.671875 C 176.609375 182.511719 174.644531 186.234375 173.265625 190.867188 C 171.917969 195.496094 171.214844 201.679688 171.1875 209.445312 L 171.1875 213.316406 C 171.1875 215.953125 173.324219 218.121094 175.992188 218.121094 L 191.671875 218.121094 C 194.308594 218.121094 196.476562 215.980469 196.476562 213.316406 L 196.476562 209.445312 C 196.535156 205.078125 197.09375 201.417969 198.175781 198.457031 C 199.261719 195.496094 200.933594 192.859375 203.160156 190.601562 C 205.417969 188.34375 208.289062 186.175781 211.804688 184.066406 C 215.996094 181.574219 219.601562 178.792969 222.675781 175.683594 C 225.726562 172.609375 228.128906 169.03125 229.859375 165.019531 C 231.558594 161.003906 232.4375 156.371094 232.4375 151.183594 C 232.347656 143.390625 230.386719 136.738281 226.515625 131.226562 Z M 226.515625 131.226562 " fill-opacity="1" fill-rule="nonzero"/></g><g clip-path="url(#79ec8782f1)"><path fill="#0062ff" d="M 184.316406 228.90625 C 179.859375 228.90625 176.082031 230.457031 172.945312 233.566406 C 169.808594 236.671875 168.253906 240.421875 168.316406 244.761719 C 168.253906 249.15625 169.808594 252.9375 172.945312 256.074219 C 176.082031 259.207031 179.859375 260.761719 184.316406 260.761719 C 187.160156 260.761719 189.796875 260.027344 192.167969 258.59375 C 194.574219 257.128906 196.507812 255.222656 198 252.789062 C 199.496094 250.359375 200.257812 247.691406 200.289062 244.761719 C 200.230469 240.394531 198.617188 236.671875 195.421875 233.566406 C 192.257812 230.457031 188.535156 228.90625 184.316406 228.90625 Z M 184.316406 228.90625 " fill-opacity="1" fill-rule="nonzero"/></g><g clip-path="url(#a6cd5a7bd1)"><g clip-path="url(#211e744216)"><path fill="#ffffff" d="M 324.972656 84.46875 L 354.292969 135.125 L 299.277344 166.964844 L 269.960938 116.304688 Z M 324.972656 84.46875 " fill-opacity="1" fill-rule="nonzero"/></g></g><g clip-path="url(#e312215c79)"><g clip-path="url(#33b9e517bd)"><g clip-path="url(#d914f7a6dc)"><path fill="#0062ff" d="M 310.496094 92.773438 C 314.683594 100.007812 312.214844 109.265625 304.976562 113.457031 C 297.738281 117.644531 288.480469 115.175781 284.292969 107.9375 C 280.101562 100.699219 282.574219 91.441406 289.8125 87.253906 C 297.046875 83.0625 306.304688 85.535156 310.496094 92.773438 Z M 310.496094 92.773438 " fill-opacity="1" fill-rule="nonzero"/></g></g></g><g clip-path="url(#b25fa4d486)"><g clip-path="url(#ad897bc8ea)"><g clip-path="url(#978c855258)"><path fill="#0062ff" d="M 339.84375 143.484375 C 344.035156 150.722656 341.5625 159.980469 334.324219 164.167969 C 327.089844 168.359375 317.832031 165.886719 313.640625 158.648438 C 309.453125 151.414062 311.921875 142.152344 319.160156 137.964844 C 326.398438 133.777344 335.65625 136.246094 339.84375 143.484375 Z M 339.84375 143.484375 " fill-opacity="1" fill-rule="nonzero"/></g></g></g></svg>