<svg xmlns="http://www.w3.org/2000/svg" xmlns:xlink="http://www.w3.org/1999/xlink" width="500" zoomAndPan="magnify" viewBox="0 0 375 374.999991" height="500" preserveAspectRatio="xMidYMid meet" version="1.0"><defs><clipPath id="df2a60a68b"><path d="M 21.484375 34 L 353.644531 34 L 353.644531 340.4375 L 21.484375 340.4375 Z M 21.484375 34 " clip-rule="nonzero"/></clipPath><clipPath id="3aa5bfc3b5"><path d="M 342.832031 226.394531 L 299.113281 301.542969 C 285.101562 325.625 259.34375 340.4375 231.480469 340.4375 L 143.519531 340.4375 C 115.65625 340.4375 89.898438 325.625 75.886719 301.542969 L 32.167969 226.394531 C 18.175781 202.351562 18.175781 172.648438 32.167969 148.605469 L 75.886719 73.457031 C 89.898438 49.375 115.65625 34.5625 143.519531 34.5625 L 231.480469 34.5625 C 259.34375 34.5625 285.101562 49.375 299.113281 73.457031 L 342.832031 148.605469 C 356.824219 172.648438 356.824219 202.351562 342.832031 226.394531 Z M 342.832031 226.394531 " clip-rule="nonzero"/></clipPath><clipPath id="7f181dea33"><path d="M 21 34.5625 L 354 34.5625 L 354 340.433594 L 21 340.433594 Z M 21 34.5625 " clip-rule="nonzero"/></clipPath><clipPath id="a075d96ded"><path d="M 342.828125 226.394531 L 299.109375 301.539062 C 285.097656 325.617188 259.339844 340.433594 231.476562 340.433594 L 143.515625 340.433594 C 115.65625 340.433594 89.898438 325.617188 75.886719 301.539062 L 32.167969 226.394531 C 18.175781 202.351562 18.175781 172.644531 32.167969 148.601562 L 75.886719 73.457031 C 89.898438 49.378906 115.65625 34.5625 143.515625 34.5625 L 231.476562 34.5625 C 259.339844 34.5625 285.097656 49.378906 299.109375 73.457031 L 342.828125 148.601562 C 356.816406 172.644531 356.816406 202.351562 342.828125 226.394531 Z M 342.828125 226.394531 " clip-rule="nonzero"/></clipPath><clipPath id="9b56b30cdd"><path d="M 26 218 L 111 218 L 111 301 L 26 301 Z M 26 218 " clip-rule="nonzero"/></clipPath><clipPath id="192dd5dee1"><path d="M 81.636719 218.175781 L 110.957031 268.835938 L 55.96875 300.660156 L 26.648438 250 Z M 81.636719 218.175781 " clip-rule="nonzero"/></clipPath><clipPath id="e0497f3b6d"><path d="M 38 218 L 70 218 L 70 250 L 38 250 Z M 38 218 " clip-rule="nonzero"/></clipPath><clipPath id="b2d47d381c"><path d="M 59.578125 213.378906 L 74.636719 239.394531 L 48.617188 254.453125 L 33.5625 228.4375 Z M 59.578125 213.378906 " clip-rule="nonzero"/></clipPath><clipPath id="372b2cd836"><path d="M 59.578125 213.378906 L 74.636719 239.394531 L 48.617188 254.453125 L 33.5625 228.4375 Z M 59.578125 213.378906 " clip-rule="nonzero"/></clipPath><clipPath id="a2b9be3b11"><path d="M 68 269 L 99 269 L 99 300 L 68 300 Z M 68 269 " clip-rule="nonzero"/></clipPath><clipPath id="6c33edcbf8"><path d="M 88.929688 264.09375 L 103.984375 290.109375 L 77.96875 305.167969 L 62.910156 279.148438 Z M 88.929688 264.09375 " clip-rule="nonzero"/></clipPath><clipPath id="043a17d4b7"><path d="M 88.929688 264.09375 L 103.984375 290.109375 L 77.96875 305.167969 L 62.910156 279.148438 Z M 88.929688 264.09375 " clip-rule="nonzero"/></clipPath><clipPath id="cc1a3084fe"><path d="M 269 84 L 355 84 L 355 167 L 269 167 Z M 269 84 " clip-rule="nonzero"/></clipPath><clipPath id="13f10ed018"><path d="M 324.972656 84.464844 L 354.292969 135.125 L 299.304688 166.949219 L 269.984375 116.292969 Z M 324.972656 84.464844 " clip-rule="nonzero"/></clipPath><clipPath id="ce04005141"><path d="M 282 85 L 313 85 L 313 116 L 282 116 Z M 282 85 " clip-rule="nonzero"/></clipPath><clipPath id="f19a05c99e"><path d="M 302.914062 79.667969 L 317.96875 105.6875 L 291.953125 120.742188 L 276.894531 94.726562 Z M 302.914062 79.667969 " clip-rule="nonzero"/></clipPath><clipPath id="d60cec19f4"><path d="M 302.914062 79.667969 L 317.96875 105.6875 L 291.953125 120.742188 L 276.894531 94.726562 Z M 302.914062 79.667969 " clip-rule="nonzero"/></clipPath><clipPath id="f0da12cf82"><path d="M 311 135 L 342 135 L 342 167 L 311 167 Z M 311 135 " clip-rule="nonzero"/></clipPath><clipPath id="10130ecd41"><path d="M 332.261719 130.382812 L 347.320312 156.398438 L 321.304688 171.457031 L 306.246094 145.4375 Z M 332.261719 130.382812 " clip-rule="nonzero"/></clipPath><clipPath id="18e4db6118"><path d="M 332.261719 130.382812 L 347.320312 156.398438 L 321.304688 171.457031 L 306.246094 145.4375 Z M 332.261719 130.382812 " clip-rule="nonzero"/></clipPath><clipPath id="33deafa138"><path d="M 142.53125 106.78125 L 232.53125 106.78125 L 232.53125 211 L 142.53125 211 Z M 142.53125 106.78125 " clip-rule="nonzero"/></clipPath><clipPath id="5a136c9112"><path d="M 168 221 L 201 221 L 201 253.03125 L 168 253.03125 Z M 168 221 " clip-rule="nonzero"/></clipPath></defs><rect x="-37.5" width="450" fill="#ffffff" y="-37.499999" height="449.999989" fill-opacity="1"/><rect x="-37.5" width="450" fill="#f2f2f2" y="-37.499999" height="449.999989" fill-opacity="1"/><g clip-path="url(#df2a60a68b)"><g clip-path="url(#3aa5bfc3b5)"><path fill="#f2f2f2" d="M 9.535156 34.5625 L 365.59375 34.5625 L 365.59375 340.4375 L 9.535156 340.4375 Z M 9.535156 34.5625 " fill-opacity="1" fill-rule="nonzero"/></g></g><g clip-path="url(#7f181dea33)"><g clip-path="url(#a075d96ded)"><path stroke-linecap="butt" transform="matrix(0.75, 0, 0, 0.75, 9.536221, 34.562737)" fill="none" stroke-linejoin="miter" d="M 444.389235 255.775742 L 386.097564 355.968457 C 367.415271 388.072626 333.071519 407.827836 295.920475 407.827836 L 178.639217 407.827836 C 141.493381 407.827836 107.149629 388.072626 88.467336 355.968457 L 30.175666 255.775742 C 11.519414 223.718449 11.519414 184.109071 30.175666 152.051777 L 88.467336 51.859062 C 107.149629 19.754894 141.493381 -0.000316121 178.639217 -0.000316121 L 295.920475 -0.000316121 C 333.071519 -0.000316121 367.415271 19.754894 386.097564 51.859062 L 444.389235 152.051777 C 463.040277 184.109071 463.040277 223.718449 444.389235 255.775742 Z M 444.389235 255.775742 " stroke="#0062ff" stroke-width="80" stroke-opacity="1" stroke-miterlimit="4"/></g></g><g clip-path="url(#9b56b30cdd)"><g clip-path="url(#192dd5dee1)"><path fill="#f2f2f2" d="M 81.636719 218.175781 L 110.957031 268.835938 L 55.945312 300.675781 L 26.625 250.015625 Z M 81.636719 218.175781 " fill-opacity="1" fill-rule="nonzero"/></g></g><g clip-path="url(#e0497f3b6d)"><g clip-path="url(#b2d47d381c)"><g clip-path="url(#372b2cd836)"><path fill="#0062ff" d="M 67.160156 226.480469 C 71.351562 233.71875 68.878906 242.976562 61.640625 247.164062 C 54.40625 251.355469 45.144531 248.882812 40.957031 241.644531 C 36.769531 234.410156 39.238281 225.148438 46.476562 220.960938 C 53.714844 216.773438 62.972656 219.242188 67.160156 226.480469 Z M 67.160156 226.480469 " fill-opacity="1" fill-rule="nonzero"/></g></g></g><g clip-path="url(#a2b9be3b11)"><g clip-path="url(#6c33edcbf8)"><g clip-path="url(#043a17d4b7)"><path fill="#0062ff" d="M 96.511719 277.195312 C 100.699219 284.429688 98.230469 293.691406 90.992188 297.878906 C 83.753906 302.066406 74.496094 299.597656 70.308594 292.359375 C 66.117188 285.121094 68.589844 275.863281 75.828125 271.675781 C 83.0625 267.484375 92.324219 269.957031 96.511719 277.195312 Z M 96.511719 277.195312 " fill-opacity="1" fill-rule="nonzero"/></g></g></g><g clip-path="url(#cc1a3084fe)"><g clip-path="url(#13f10ed018)"><path fill="#f2f2f2" d="M 324.972656 84.464844 L 354.292969 135.125 L 299.277344 166.964844 L 269.960938 116.304688 Z M 324.972656 84.464844 " fill-opacity="1" fill-rule="nonzero"/></g></g><g clip-path="url(#ce04005141)"><g clip-path="url(#f19a05c99e)"><g clip-path="url(#d60cec19f4)"><path fill="#0062ff" d="M 310.496094 92.769531 C 314.683594 100.007812 312.214844 109.265625 304.976562 113.453125 C 297.738281 117.644531 288.480469 115.171875 284.292969 107.9375 C 280.101562 100.699219 282.574219 91.441406 289.8125 87.25 C 297.046875 83.0625 306.308594 85.53125 310.496094 92.769531 Z M 310.496094 92.769531 " fill-opacity="1" fill-rule="nonzero"/></g></g></g><g clip-path="url(#f0da12cf82)"><g clip-path="url(#10130ecd41)"><g clip-path="url(#18e4db6118)"><path fill="#0062ff" d="M 339.847656 143.484375 C 344.035156 150.71875 341.5625 159.980469 334.328125 164.167969 C 327.089844 168.355469 317.832031 165.886719 313.640625 158.648438 C 309.453125 151.410156 311.921875 142.152344 319.160156 137.964844 C 326.398438 133.773438 335.65625 136.246094 339.847656 143.484375 Z M 339.847656 143.484375 " fill-opacity="1" fill-rule="nonzero"/></g></g></g><g clip-path="url(#33deafa138)"><path fill="#0062ff" d="M 226.515625 123.78125 C 222.648438 118.269531 217.316406 114.050781 210.515625 111.148438 C 203.746094 108.246094 195.921875 106.78125 187.070312 106.78125 C 179.011719 106.78125 171.65625 108.21875 165.003906 111.089844 C 158.351562 113.933594 152.988281 118.300781 148.941406 124.074219 C 145.71875 128.671875 143.726562 134.242188 142.90625 140.777344 C 142.554688 143.621094 144.8125 146.140625 147.683594 146.140625 L 165.5 146.140625 C 167.785156 146.140625 169.722656 144.527344 170.21875 142.300781 C 170.660156 140.308594 171.390625 138.519531 172.417969 136.996094 C 174.058594 134.535156 176.167969 132.660156 178.746094 131.398438 C 181.328125 130.140625 184.050781 129.496094 186.953125 129.496094 C 189.941406 129.496094 192.636719 130.109375 195.128906 131.371094 C 197.589844 132.601562 199.554688 134.386719 201.019531 136.703125 C 202.484375 139.019531 203.21875 141.6875 203.21875 144.761719 C 203.21875 147.664062 202.574219 150.273438 201.285156 152.585938 C 199.996094 154.902344 198.265625 157.042969 196.097656 158.945312 C 193.898438 160.882812 191.464844 162.699219 188.710938 164.484375 C 185.019531 166.800781 181.855469 169.378906 179.246094 172.222656 C 176.609375 175.066406 174.644531 178.789062 173.265625 183.417969 C 171.917969 188.046875 171.214844 194.230469 171.1875 201.996094 L 171.1875 205.867188 C 171.1875 208.503906 173.324219 210.671875 175.992188 210.671875 L 191.671875 210.671875 C 194.308594 210.671875 196.476562 208.535156 196.476562 205.867188 L 196.476562 201.996094 C 196.535156 197.632812 197.09375 193.96875 198.175781 191.007812 C 199.261719 188.046875 200.933594 185.410156 203.160156 183.152344 C 205.417969 180.898438 208.289062 178.730469 211.804688 176.617188 C 215.996094 174.128906 219.601562 171.34375 222.675781 168.238281 C 225.726562 165.160156 228.128906 161.585938 229.859375 157.570312 C 231.558594 153.554688 232.4375 148.925781 232.4375 143.738281 C 232.347656 135.941406 230.386719 129.289062 226.515625 123.78125 Z M 226.515625 123.78125 " fill-opacity="1" fill-rule="nonzero"/></g><g clip-path="url(#5a136c9112)"><path fill="#0062ff" d="M 184.316406 221.457031 C 179.859375 221.457031 176.082031 223.011719 172.945312 226.117188 C 169.808594 229.222656 168.253906 232.976562 168.316406 237.3125 C 168.253906 241.707031 169.808594 245.488281 172.945312 248.625 C 176.082031 251.761719 179.859375 253.3125 184.316406 253.3125 C 187.160156 253.3125 189.796875 252.582031 192.167969 251.144531 C 194.574219 249.679688 196.507812 247.773438 198 245.34375 C 199.496094 242.910156 200.257812 240.242188 200.289062 237.3125 C 200.230469 232.945312 198.617188 229.222656 195.421875 226.117188 C 192.257812 223.011719 188.535156 221.457031 184.316406 221.457031 Z M 184.316406 221.457031 " fill-opacity="1" fill-rule="nonzero"/></g></svg>