<?xml version="1.0" standalone="no"?>
<!DOCTYPE svg PUBLIC "-//W3C//DTD SVG 20010904//EN"
 "http://www.w3.org/TR/2001/REC-SVG-20010904/DTD/svg10.dtd">
<svg version="1.0" xmlns="http://www.w3.org/2000/svg"
 width="1064.000000pt" height="389.000000pt" viewBox="0 0 1064.000000 389.000000"
 preserveAspectRatio="xMidYMid meet">

<g transform="translate(0.000000,389.000000) scale(0.100000,-0.100000)"
fill="#000000" stroke="none">
<path d="M1525 3501 c-633 -112 -1131 -592 -1266 -1219 -30 -140 -37 -400 -15
-549 76 -513 401 -954 869 -1178 217 -104 380 -144 622 -152 179 -6 285 4 440
43 281 71 517 206 725 414 529 529 607 1346 190 1972 -170 255 -430 465 -720
582 -86 35 -233 75 -339 92 -121 20 -380 17 -506 -5z m235 -116 c17 -20 5 -32
-15 -15 -16 13 -45 7 -45 -10 0 -6 14 -16 30 -22 52 -18 64 -58 25 -84 -32
-21 -75 -12 -75 16 0 24 9 25 25 3 7 -9 19 -14 29 -10 27 11 18 36 -19 51 -27
12 -35 21 -35 40 0 40 55 61 80 31z m165 1 c12 -9 16 -19 11 -31 -6 -17 -8
-17 -22 3 -29 41 -84 17 -84 -37 0 -37 17 -51 64 -51 31 0 37 -3 28 -12 -21
-21 -82 -15 -103 11 -57 70 34 170 106 117z m-336 -31 c3 -17 1 -17 -12 -6
-21 17 -57 5 -57 -20 0 -20 24 -26 36 -8 4 8 9 7 15 -2 16 -25 10 -36 -16 -31
-20 3 -25 0 -25 -17 0 -12 7 -24 15 -27 24 -10 7 -24 -28 -24 -21 0 -28 3 -19
9 16 10 8 74 -14 108 -13 21 -12 22 29 31 56 13 71 11 76 -13z m426 19 c11 -5
13 -9 6 -14 -17 -10 -30 -107 -17 -120 7 -7 0 -10 -22 -10 -33 0 -40 8 -21 27
6 6 12 36 13 67 1 56 6 63 41 50z m133 -25 c22 -8 28 -20 16 -32 -4 -3 -13 0
-21 8 -22 23 -53 19 -53 -6 0 -17 5 -20 25 -17 19 4 25 1 25 -12 0 -25 -10
-30 -31 -17 -16 10 -21 9 -29 -3 -16 -25 -5 -35 34 -34 23 1 35 -3 33 -10 -4
-12 -72 -14 -101 -3 -14 5 -15 11 -8 20 19 23 32 100 20 115 -10 11 -5 12 28
6 21 -4 49 -11 62 -15z m-729 -24 c71 -36 45 -145 -34 -145 -36 0 -60 22 -70
63 -10 40 25 86 73 96 2 1 16 -6 31 -14z m844 -58 c21 -64 40 -65 41 -2 1 30
4 34 21 29 28 -9 31 -14 17 -23 -6 -4 -20 -32 -30 -62 -11 -30 -22 -54 -27
-54 -4 0 -17 26 -28 58 -12 31 -24 57 -28 57 -9 0 -24 -59 -20 -77 2 -15 -8
-16 -28 -4 -12 7 -12 13 -3 24 24 28 41 94 29 107 -9 9 -6 11 12 8 20 -2 28
-14 44 -61z m-1060 -55 c-4 -47 -2 -62 12 -76 15 -15 16 -19 4 -27 -19 -12
-42 -11 -34 1 11 18 -15 48 -62 71 -44 21 -45 23 -24 33 15 7 25 6 29 -1 4 -5
18 -16 30 -22 23 -12 24 -11 21 24 -3 30 9 53 28 55 0 0 -1 -26 -4 -58z m1268
21 c32 -19 36 -34 14 -53 -12 -10 -15 -9 -15 7 0 46 -59 59 -86 18 -24 -36
-11 -74 26 -82 42 -8 48 -23 10 -23 -46 0 -84 42 -76 83 12 61 69 84 127 50z
m149 -102 c0 -20 -14 -17 -36 7 -20 23 -25 25 -34 12 -15 -22 -12 -31 10 -37
12 -3 20 -12 18 -21 -4 -20 -28 -28 -28 -9 0 24 -25 27 -39 5 -10 -17 -9 -22
6 -34 10 -8 26 -12 36 -10 21 5 23 -12 2 -20 -8 -4 -37 8 -63 25 -26 17 -40
31 -32 31 17 0 70 79 70 104 0 14 8 11 45 -14 25 -17 45 -34 45 -39z m-1550
34 c11 -13 8 -15 -14 -15 -14 0 -26 -5 -26 -11 0 -14 38 -70 58 -86 14 -12 14
-15 -4 -28 -24 -18 -35 -19 -28 -1 6 16 -43 96 -58 96 -6 0 -12 -9 -15 -20 -5
-20 -23 -28 -23 -10 0 6 -1 13 -1 18 -2 7 80 70 92 71 4 1 12 -6 19 -14z m900
-79 c454 -74 808 -399 931 -856 21 -75 23 -108 23 -275 0 -173 -3 -199 -27
-288 -112 -416 -441 -733 -862 -830 -108 -24 -353 -29 -450 -8 -414 88 -726
353 -871 738 -53 141 -76 318 -63 484 52 661 665 1141 1319 1035z m-1040 -7
c0 -17 64 -89 80 -89 10 -1 7 -7 -10 -22 -24 -20 -25 -20 -28 -1 -2 10 -20 38
-41 61 -26 28 -35 44 -27 52 13 13 26 13 26 -1z m1781 -5 c10 -9 15 -22 12
-30 -8 -20 -23 -17 -23 5 0 23 -29 36 -36 17 -3 -8 -1 -23 5 -35 28 -51 -4
-92 -53 -70 -27 12 -42 41 -31 59 11 18 25 10 25 -14 0 -28 28 -43 37 -20 3 8
0 27 -6 41 -17 36 -5 63 26 63 15 0 34 -7 44 -16z m-1841 -59 c10 -13 9 -15
-8 -15 -24 0 -38 -18 -25 -31 6 -6 20 -6 37 1 58 22 90 -37 44 -80 -26 -24
-32 -25 -48 -5 -13 15 -8 19 23 16 20 -3 34 26 20 40 -5 5 -21 5 -39 0 -56
-16 -86 28 -47 71 20 22 27 22 43 3z m1965 -143 c-14 -29 -25 -61 -25 -72 0
-23 -13 -26 -29 -6 -9 11 -9 19 1 35 11 18 10 23 -5 38 -14 14 -21 15 -36 6
-14 -9 -21 -9 -30 0 -17 17 -13 27 12 28 12 0 45 9 72 19 28 9 53 14 58 11 4
-4 -4 -30 -18 -59z m-2051 29 c10 -11 15 -25 11 -30 -6 -11 27 -16 70 -11 17
2 17 0 5 -15 -9 -11 -26 -15 -52 -14 -43 4 -54 -11 -20 -26 27 -12 27 -17 2
-40 -19 -17 -20 -17 -20 1 0 21 -68 80 -87 76 -21 -5 -15 10 19 45 37 38 48
40 72 14z m2151 -136 c-9 -31 -14 -59 -12 -61 2 -3 19 9 37 26 30 28 33 29 46
13 11 -16 9 -19 -12 -25 -14 -4 -40 -18 -59 -32 -29 -23 -55 -33 -55 -23 0 2
7 27 16 56 8 29 14 57 12 63 -2 5 -19 -4 -38 -22 -32 -30 -35 -31 -47 -14 -12
17 -11 19 11 25 37 10 86 48 86 67 0 15 1 15 16 0 15 -14 15 -20 -1 -73z
m-2260 35 c3 -5 0 -10 -7 -10 -7 0 -19 -10 -27 -21 -11 -18 -11 -23 1 -30 21
-13 29 -11 35 11 6 23 16 25 32 6 9 -11 7 -15 -10 -19 -23 -6 -22 -25 4 -41
21 -14 49 20 41 49 -6 19 -5 19 11 3 16 -15 15 -19 -16 -65 -23 -33 -35 -43
-37 -31 -3 17 -66 63 -95 69 -14 4 -13 10 11 46 27 42 45 53 57 33z m-51 -166
c26 -30 46 -58 43 -60 -3 -3 -39 -3 -81 1 -70 7 -75 9 -65 26 5 11 15 16 21
13 22 -14 88 -22 81 -10 -13 24 -47 56 -59 56 -8 0 -11 6 -8 15 9 23 15 19 68
-41z m2445 0 c22 -43 23 -50 10 -73 -20 -36 -71 -49 -104 -27 -24 16 -65 71
-65 89 0 4 10 7 21 7 25 0 99 39 99 52 0 18 16 -2 39 -48z m-2559 -93 c0 -10
90 -46 108 -43 6 2 12 -1 12 -6 0 -13 -29 -49 -30 -36 0 15 -95 58 -109 50
-12 -8 -14 4 -5 28 6 17 24 22 24 7z m28 -112 c41 -14 69 -39 44 -39 -6 0 -32
-10 -59 -21 l-48 -21 30 -14 c17 -7 38 -10 48 -7 16 4 18 1 12 -19 -10 -32
-13 -34 -28 -16 -15 19 -83 42 -102 34 -9 -3 -15 1 -15 10 0 9 26 26 63 43
l62 28 -35 8 c-19 5 -41 8 -49 6 -9 -2 -12 3 -7 14 3 9 6 21 6 27 0 6 7 4 16
-3 9 -8 37 -21 62 -30z m2625 -16 c14 -45 15 -58 5 -65 -22 -14 -29 -9 -22 17
3 14 2 25 -3 25 -24 0 -103 -33 -103 -43 0 -7 -5 -5 -10 3 -13 20 -13 53 0 45
14 -9 110 24 110 37 0 5 -9 12 -20 15 -23 6 -17 23 9 23 12 0 22 -16 34 -57z
m43 -189 c-10 -27 -26 -14 -20 16 5 22 2 31 -10 36 -24 9 -44 -12 -28 -28 18
-18 15 -28 -8 -28 -11 0 -17 5 -15 13 7 19 -10 38 -28 31 -21 -8 -22 -53 -2
-60 16 -6 21 -24 7 -24 -5 0 -15 6 -24 13 -19 14 -38 114 -19 103 16 -10 100
4 114 19 10 11 15 4 25 -32 8 -24 11 -51 8 -59z m-2731 44 c21 -5 45 -14 52
-20 20 -16 16 -65 -7 -88 -23 -23 -23 -23 -73 -9 -28 8 -42 7 -53 -2 -11 -9
-14 -8 -14 4 0 29 12 48 24 39 20 -17 87 -24 102 -11 38 31 3 69 -66 72 -32 1
-40 5 -40 20 0 14 4 17 18 12 9 -4 35 -12 57 -17z m2727 -118 c29 -22 39 -56
27 -88 -8 -22 -39 -31 -39 -12 0 6 5 10 10 10 14 0 12 54 -2 68 -17 17 -64 15
-83 -4 -12 -13 -15 -27 -10 -58 6 -38 5 -40 -10 -22 -24 32 -19 81 11 105 33
26 64 27 96 1z m-2698 -106 c12 -5 16 -20 16 -61 0 -47 -2 -54 -17 -49 -53 14
-105 17 -118 6 -13 -11 -15 -7 -15 21 0 26 3 30 12 21 7 -7 36 -12 65 -12 50
0 53 2 53 24 0 14 -4 28 -10 31 -10 6 -14 25 -6 25 2 0 11 -3 20 -6z m2611
-44 c9 -14 99 -12 113 2 9 9 12 5 12 -20 0 -30 -2 -32 -21 -22 -29 16 -49 5
-49 -25 0 -30 25 -43 51 -26 17 10 19 8 19 -19 0 -28 -13 -40 -24 -22 -8 13
-96 14 -112 1 -12 -9 -14 -6 -14 20 0 28 2 30 19 20 28 -18 50 -5 48 28 -2 21
-8 29 -25 31 -12 2 -22 -1 -22 -7 0 -6 -4 -11 -10 -11 -5 0 -10 14 -10 30 0
29 13 40 25 20z m-2595 -114 c0 -17 -5 -23 -17 -22 -14 1 -18 -7 -18 -29 0
-23 5 -31 23 -33 13 -2 22 -10 22 -22 0 -17 -4 -16 -57 5 -32 12 -66 25 -75
28 -28 10 -21 22 20 41 20 9 48 26 62 36 33 26 40 25 40 -4z m2586 -55 c16
-15 100 -21 112 -9 9 9 12 7 12 -9 0 -15 -17 -32 -57 -57 -56 -34 -57 -36 -28
-38 17 -1 39 -1 51 -1 17 1 20 -3 16 -22 -4 -21 -6 -22 -30 -9 -15 8 -36 14
-47 14 -28 0 -65 11 -65 19 0 3 26 22 58 41 l57 35 -40 6 c-23 4 -45 3 -52 -3
-10 -8 -13 -4 -13 16 0 27 9 33 26 17z m-2585 -118 c-11 -16 -29 -39 -40 -53
-12 -14 -21 -28 -21 -32 0 -8 59 10 76 23 6 5 14 6 17 2 10 -10 8 -45 -2 -39
-14 9 -114 -13 -122 -26 -6 -9 -10 -8 -15 5 -4 12 6 32 30 61 20 25 36 47 36
50 0 10 -24 6 -52 -8 -29 -15 -38 -12 -38 15 0 11 6 16 18 13 9 -3 35 -1 57 5
22 5 48 9 58 10 17 1 17 -1 -2 -26z m2657 -96 c40 -83 -70 -144 -128 -70 -23
30 -24 42 -9 77 24 53 110 49 137 -7z m-2601 -69 c48 -45 13 -128 -54 -128
-49 0 -92 76 -65 116 25 37 86 43 119 12z m2505 -73 c20 -8 44 -12 52 -9 19 7
20 -3 2 -35 -10 -18 -14 -20 -19 -8 -3 8 -26 23 -52 33 -52 19 -69 10 -62 -33
5 -25 -3 -29 -20 -12 -8 8 -5 24 9 60 19 45 22 48 37 35 9 -9 33 -22 53 -31z
m-2442 -54 c0 -5 3 -17 7 -27 4 -11 3 -15 -4 -11 -15 10 -102 -29 -109 -48 -6
-14 -8 -13 -20 2 -16 21 -19 47 -4 38 12 -7 110 34 110 46 0 5 5 9 10 9 6 0
10 -4 10 -9z m2398 -71 c52 -49 29 -122 -40 -128 -29 -3 -40 2 -62 29 -30 35
-29 68 1 102 22 23 74 22 101 -3z m-2338 -57 c0 -7 -6 -10 -12 -8 -16 6 -90
-35 -96 -52 -2 -8 5 -13 18 -13 24 0 23 -23 -2 -28 -10 -2 -26 15 -42 44 -26
46 -28 74 -6 74 6 0 8 -4 5 -10 -3 -5 -2 -16 2 -24 7 -12 16 -10 56 15 26 16
47 34 47 41 0 15 29 -23 30 -39z m39 -50 c6 -12 5 -20 -6 -28 -13 -9 -13 -16
-4 -33 12 -23 36 -29 46 -12 8 13 25 3 25 -13 0 -7 -27 -18 -65 -25 -100 -19
-100 -19 -64 41 17 28 33 60 36 70 7 22 19 22 32 0z m2190 -28 c51 -26 55 -79
12 -127 -28 -31 -31 -32 -48 -15 -17 16 -16 17 10 17 27 0 47 23 47 54 0 22
-36 56 -60 56 -21 0 -60 -33 -60 -50 0 -5 11 -12 25 -16 29 -7 31 -16 10 -34
-12 -10 -18 -8 -35 11 -24 29 -24 32 -5 69 25 49 57 60 104 35z m-2100 -112
c0 -10 -4 -39 -8 -65 -4 -27 -5 -48 -1 -48 12 0 60 56 53 63 -3 4 -2 7 3 7 12
0 34 -21 34 -32 0 -4 -5 -8 -11 -8 -20 0 -90 -64 -84 -78 3 -8 0 -12 -7 -9 -9
3 -12 26 -11 77 l2 73 -29 -28 c-16 -15 -27 -32 -24 -37 8 -12 -10 -10 -24 4
-14 14 -16 32 -3 24 5 -3 28 12 52 34 49 44 59 48 58 23z m1932 -47 c14 -17
33 -26 70 -31 49 -7 50 -8 33 -26 -10 -11 -20 -16 -23 -11 -3 5 -17 11 -30 15
-21 5 -22 3 -17 -21 11 -47 11 -55 -1 -59 -6 -2 -14 13 -18 39 -8 45 -29 78
-52 78 -11 0 -11 4 -1 20 16 25 16 25 39 -4z m-1707 -161 c9 -14 25 -25 36
-25 30 0 32 -17 2 -22 -15 -3 -34 -7 -42 -9 -10 -3 -16 8 -20 39 -7 48 0 53
24 17z m1482 9 c-3 -9 -6 -29 -6 -45 0 -26 -2 -29 -19 -19 -11 5 -31 10 -46
10 -15 0 -24 4 -20 10 3 6 16 10 29 10 14 0 28 10 36 25 15 27 36 35 26 9z
m-1488 -81 c15 3 36 9 47 13 17 6 18 5 8 -7 -15 -17 -121 -75 -127 -68 -5 4
19 104 31 129 5 9 9 -2 11 -29 3 -41 5 -43 30 -38z m1527 8 c9 -35 14 -65 11
-68 -6 -7 -126 58 -126 68 0 4 15 3 32 -2 54 -15 58 -12 58 33 0 53 4 48 25
-31z m-1178 -92 c33 -28 -13 -75 -62 -63 -26 7 -27 5 -23 -25 2 -17 3 -31 2
-31 -2 0 -15 5 -29 12 -25 11 -34 28 -15 28 15 0 51 87 43 106 -5 14 -2 14 32
-1 21 -8 44 -20 52 -26z m857 4 c-3 -10 2 -38 11 -62 26 -73 18 -78 -51 -30
-25 17 -48 28 -51 25 -3 -3 3 -23 14 -45 11 -22 18 -43 15 -46 -9 -9 -43 -5
-37 4 8 14 -18 103 -32 108 -7 3 -13 9 -13 14 0 17 33 9 86 -22 30 -17 54 -28
54 -25 0 12 -25 62 -35 69 -6 4 -5 11 5 17 23 15 39 12 34 -7z m-768 -100 c6
-43 10 -80 8 -81 -1 -2 -11 -1 -22 2 -14 5 -18 13 -15 30 4 18 -1 25 -18 29
-27 7 -39 1 -39 -19 0 -16 -2 -16 -24 -8 -13 5 -6 18 35 65 28 32 54 59 58 59
4 0 12 -35 17 -77z m91 51 c20 -5 20 -8 8 -21 -8 -8 -15 -21 -15 -29 0 -12 4
-12 25 2 14 9 25 20 25 25 0 5 12 9 28 8 l27 0 -24 -17 c-65 -45 -65 -43 -26
-86 20 -21 35 -40 33 -41 -2 -2 -15 -1 -29 2 -16 3 -29 15 -36 34 -14 36 -37
39 -31 4 5 -21 1 -25 -19 -25 -20 0 -24 4 -18 18 13 31 24 102 19 117 -7 16
-1 18 33 9z m509 -59 c21 -30 42 -55 47 -55 4 0 7 -4 7 -10 0 -5 -11 -10 -25
-10 -15 0 -25 6 -25 14 0 20 -12 26 -38 19 -15 -3 -22 -13 -22 -29 0 -17 -6
-24 -20 -24 -16 0 -19 4 -12 18 5 9 14 43 21 75 7 31 16 57 20 57 4 0 25 -25
47 -55z m-349 31 c-15 -38 -19 -107 -7 -121 11 -13 8 -15 -19 -15 -31 0 -41
13 -20 26 7 4 10 29 7 65 -4 57 -3 59 20 59 16 0 22 -4 19 -14z m95 3 c14 -8
23 -8 31 0 17 17 114 14 120 -4 4 -8 2 -17 -3 -20 -6 -4 -10 -1 -10 4 0 6 -9
11 -20 11 -19 0 -20 -4 -14 -52 4 -29 11 -55 16 -56 15 -6 -3 -22 -25 -22 -20
0 -22 4 -19 56 4 61 -10 91 -31 64 -15 -19 -39 -19 -53 -1 -11 15 -44 9 -44
-8 0 -5 16 -18 35 -30 25 -15 35 -27 35 -45 0 -41 -54 -60 -84 -30 -22 21 -9
40 13 20 22 -20 37 -20 45 -1 4 11 -6 22 -29 36 -39 23 -47 61 -17 78 22 13
29 13 54 0z"/>
<path d="M1352 3298 c-30 -30 1 -98 44 -98 36 0 51 38 30 79 -17 33 -51 42
-74 19z"/>
<path d="M1767 2930 c-9 -58 -35 -221 -58 -363 -22 -142 -39 -260 -37 -262 1
-2 28 1 58 6 50 8 75 7 151 -7 l25 -5 -58 358 c-32 197 -59 362 -61 367 -2 6
-11 -37 -20 -94z"/>
<path d="M1552 2928 c-23 -18 -57 -52 -76 -75 l-36 -41 -79 5 c-43 3 -92 2
-107 -2 -28 -7 -26 -8 23 -21 71 -18 145 -57 193 -101 l40 -35 0 45 c0 73 19
141 55 201 18 31 32 56 31 56 -2 0 -22 -15 -44 -32z"/>
<path d="M1980 2951 c0 -5 5 -13 10 -16 33 -20 80 -164 80 -242 l0 -36 43 40
c50 46 136 89 197 99 75 12 17 27 -83 21 l-91 -5 -49 54 c-53 59 -107 101
-107 85z"/>
<path d="M1947 2644 c2 -137 5 -255 6 -262 1 -7 85 72 187 174 102 103 172
179 157 170 -167 -102 -257 -154 -261 -148 -2 4 -21 70 -42 147 -20 77 -40
146 -44 154 -4 7 -5 -99 -3 -235z"/>
<path d="M1593 2765 c-18 -66 -36 -136 -41 -155 -5 -19 -14 -34 -20 -33 -6 2
-70 38 -142 82 -71 44 -130 76 -130 73 1 -12 359 -367 365 -361 3 3 4 120 3
260 l-3 254 -32 -120z"/>
<path d="M1022 2721 c8 -20 442 -611 450 -611 4 0 16 17 27 38 11 22 44 61 74
89 l55 50 -305 221 c-168 122 -303 218 -301 213z"/>
<path d="M2236 2502 c-255 -184 -296 -218 -281 -227 40 -22 97 -81 122 -122
21 -36 28 -42 38 -31 7 7 97 130 200 273 103 143 199 275 213 293 13 17 20 32
16 31 -5 0 -144 -98 -308 -217z"/>
<path d="M916 2466 c-4 -25 -4 -73 0 -107 6 -54 5 -64 -12 -76 -35 -25 -93
-84 -116 -116 l-23 -32 29 19 c67 43 94 56 151 70 32 9 74 16 92 16 l33 0 -49
61 c-33 41 -56 84 -74 135 l-24 76 -7 -46z"/>
<path d="M2626 2475 c-11 -59 -51 -137 -97 -189 l-41 -46 34 0 c69 -1 165 -33
238 -82 l35 -23 -22 31 c-26 37 -80 90 -111 111 -22 15 -22 20 -17 97 3 45 2
95 -3 111 l-9 30 -7 -40z"/>
<path d="M990 2498 c0 -4 38 -71 85 -149 47 -78 84 -144 81 -146 -2 -3 -71
-22 -151 -43 -81 -22 -150 -41 -153 -44 -5 -6 501 5 508 11 2 2 -80 88 -183
191 -103 103 -187 184 -187 180z"/>
<path d="M2380 2315 c-101 -101 -182 -186 -180 -188 7 -6 513 -16 507 -10 -3
2 -71 22 -152 43 -81 21 -149 41 -151 43 -3 3 34 69 81 147 47 78 84 144 83
146 -2 1 -86 -80 -188 -181z"/>
<path d="M1735 2191 c-97 -25 -185 -122 -185 -206 l0 -25 240 0 240 0 -7 33
c-14 78 -73 153 -144 184 -37 16 -109 23 -144 14z"/>
<path d="M1295 2049 c-77 -15 -207 -42 -290 -58 l-150 -29 291 -1 291 -1 7 38
c3 20 9 47 12 60 8 27 15 27 -161 -9z"/>
<path d="M2124 2054 c3 -9 9 -33 12 -55 l7 -39 286 1 286 1 -290 54 c-159 29
-294 54 -299 54 -4 0 -5 -7 -2 -16z"/>
<path d="M730 1853 c0 -50 37 -207 65 -278 107 -272 338 -504 602 -607 138
-54 235 -71 388 -72 139 0 179 6 320 46 207 59 438 230 564 416 88 131 160
319 175 460 l7 62 -1061 0 -1060 0 0 -27z m309 -27 c22 -26 107 -65 130 -59
25 6 28 -14 6 -43 -8 -10 -15 -34 -15 -51 0 -26 5 -34 24 -39 30 -7 86 10 121
38 14 11 29 17 32 14 10 -9 -37 -55 -86 -84 -86 -51 -119 -127 -90 -213 12
-33 36 -69 48 -69 3 0 6 28 6 63 1 79 35 154 105 230 50 54 78 60 41 8 -93
-130 -78 -306 32 -379 38 -25 50 -27 181 -33 84 -4 153 -11 171 -19 29 -13 26
-14 -60 -20 -73 -5 -101 -12 -143 -35 -29 -15 -52 -32 -52 -36 0 -5 -9 -13
-20 -19 -16 -9 -24 -5 -46 20 -20 22 -36 30 -61 30 -19 0 -51 9 -73 20 -32 17
-44 18 -65 8 -14 -6 -25 -15 -25 -20 0 -4 -4 -8 -10 -8 -20 0 -10 66 15 102
l25 37 -39 20 c-46 24 -85 68 -100 114 -6 18 -25 43 -41 56 -38 27 -37 34 0
48 59 22 75 122 33 194 -21 35 -81 69 -124 70 -45 0 -101 21 -107 38 -3 8 0
11 7 7 21 -13 111 -8 134 8 28 19 32 19 46 2z m974 -7 c65 -10 77 -15 71 -28
-41 -99 -71 -291 -61 -398 l6 -63 -72 0 c-40 -1 -90 -7 -112 -15 -22 -8 -41
-15 -42 -15 -2 0 -3 114 -3 254 0 193 3 257 13 263 13 8 95 20 112 17 6 -1 45
-8 88 -15z m569 5 c22 -11 49 -15 90 -12 32 2 58 1 58 -3 0 -11 -51 -29 -115
-39 -33 -5 -71 -18 -85 -28 -75 -55 -81 -190 -10 -230 36 -21 38 -36 6 -57
-13 -9 -36 -41 -51 -71 -25 -52 -82 -104 -112 -104 -17 0 -17 -2 12 -56 23
-42 33 -94 20 -94 -3 0 -18 9 -33 20 l-28 21 -45 -20 c-24 -11 -58 -21 -76
-21 -23 0 -40 -9 -62 -32 l-29 -32 -38 33 c-53 47 -97 63 -194 70 -80 6 -84 7
-60 21 17 10 69 16 165 20 156 6 182 14 233 76 72 87 68 218 -9 330 -17 25
-29 47 -27 50 3 2 30 -23 62 -56 73 -77 108 -151 108 -231 0 -67 11 -72 40
-19 22 43 24 130 3 171 -9 16 -39 45 -68 63 -48 31 -119 96 -105 96 3 0 32
-13 63 -30 73 -38 102 -39 116 -2 9 21 7 33 -5 55 -21 38 -21 61 0 53 20 -8
120 40 128 60 7 18 10 18 48 -2z m-828 -4 l26 -10 0 -255 c0 -140 -1 -255 -2
-255 -2 0 -21 7 -43 15 -22 8 -72 14 -111 15 l-72 0 -5 153 c-5 146 -10 177
-53 308 -5 13 5 19 43 27 64 13 185 14 217 2z m-276 -58 c2 -7 -5 -16 -17 -19
-26 -7 -26 -13 -2 -55 35 -60 54 -155 54 -276 l-1 -113 59 7 c79 9 163 -3 191
-27 l23 -19 -30 7 c-37 10 -96 9 -201 -1 l-81 -9 0 129 c1 148 -16 231 -63
307 -17 27 -30 52 -30 57 0 10 57 29 79 27 8 -1 16 -8 19 -15z m675 7 c43 -12
46 -28 16 -71 -45 -63 -62 -143 -64 -292 -1 -107 -5 -141 -15 -144 -7 -3 -57
1 -110 8 -70 8 -107 9 -135 1 -49 -13 -55 -8 -19 16 23 15 48 18 134 18 l105
0 0 120 c1 127 18 209 57 272 l20 33 -26 10 c-17 6 -24 14 -20 25 7 18 8 18
57 4z m-1115 -46 c13 -8 30 -30 38 -50 47 -112 -95 -215 -184 -133 -26 25 -31
50 -4 28 29 -25 51 -28 88 -13 69 28 77 121 17 173 l-28 23 25 -7 c14 -3 36
-13 48 -21z m1538 -5 c-39 -33 -46 -93 -16 -131 34 -44 66 -51 112 -28 47 23
46 6 -2 -26 -84 -57 -190 9 -177 109 6 45 29 75 72 94 40 16 43 10 11 -18z
m-1650 -35 c-3 -4 1 -15 11 -25 15 -16 15 -18 0 -18 -9 0 -21 -8 -27 -17 -8
-13 -13 -14 -16 -5 -3 6 -15 12 -26 12 -12 0 -17 5 -14 13 3 6 9 19 12 28 3
10 18 16 36 17 16 0 27 -2 24 -5z m1777 -9 c-3 -8 0 -14 6 -14 6 0 11 -7 11
-15 0 -8 -6 -15 -14 -15 -8 0 -17 -6 -20 -12 -3 -9 -8 -8 -16 5 -6 9 -18 17
-25 17 -8 0 -15 5 -15 10 0 6 5 10 10 10 6 0 10 6 10 13 0 9 12 14 29 15 22 0
28 -3 24 -14z"/>
<path d="M1005 1800 c-3 -5 -1 -10 4 -10 6 0 11 5 11 10 0 6 -2 10 -4 10 -3 0
-8 -4 -11 -10z"/>
<path d="M1065 1760 c3 -5 11 -10 16 -10 6 0 7 5 4 10 -3 6 -11 10 -16 10 -6
0 -7 -4 -4 -10z"/>
<path d="M1120 1730 c0 -5 6 -10 14 -10 8 0 18 5 21 10 3 6 -3 10 -14 10 -12
0 -21 -4 -21 -10z"/>
<path d="M1170 1600 c0 -5 5 -10 10 -10 6 0 10 5 10 10 0 6 -4 10 -10 10 -5 0
-10 -4 -10 -10z"/>
<path d="M1120 1534 c0 -14 3 -14 15 -4 8 7 15 14 15 16 0 2 -7 4 -15 4 -8 0
-15 -7 -15 -16z"/>
<path d="M1070 1480 c-12 -8 -9 -10 13 -10 15 0 27 5 27 10 0 13 -20 13 -40 0z"/>
<path d="M1110 1438 c0 -7 5 -20 10 -28 8 -12 10 -11 10 7 0 12 -4 25 -10 28
-5 3 -10 0 -10 -7z"/>
<path d="M1250 1380 c0 -35 19 -98 31 -106 18 -11 20 2 4 32 -8 16 -15 38 -15
49 0 11 -5 27 -10 35 -8 12 -10 10 -10 -10z"/>
<path d="M1235 1220 c-10 -11 -16 -23 -13 -26 6 -6 88 33 88 41 0 14 -59 2
-75 -15z"/>
<path d="M1342 1188 c5 -15 58 -24 58 -10 0 11 -24 22 -47 22 -8 0 -13 -6 -11
-12z"/>
<path d="M1454 1155 c-4 -9 -3 -19 0 -23 9 -8 42 12 39 24 -4 16 -33 16 -39
-1z"/>
<path d="M2550 1800 c0 -5 5 -10 10 -10 6 0 10 5 10 10 0 6 -4 10 -10 10 -5 0
-10 -4 -10 -10z"/>
<path d="M2490 1760 c0 -5 7 -7 15 -4 8 4 15 8 15 10 0 2 -7 4 -15 4 -8 0 -15
-4 -15 -10z"/>
<path d="M2425 1730 c3 -5 13 -10 21 -10 8 0 12 5 9 10 -3 6 -13 10 -21 10 -8
0 -12 -4 -9 -10z"/>
<path d="M2446 1685 c-3 -9 -6 -22 -5 -28 0 -7 5 -1 10 12 5 13 8 26 5 28 -2
2 -6 -3 -10 -12z"/>
<path d="M2380 1600 c0 -5 7 -10 15 -10 8 0 15 5 15 10 0 6 -7 10 -15 10 -8 0
-15 -4 -15 -10z"/>
<path d="M2432 1539 c2 -7 10 -15 17 -17 8 -3 12 1 9 9 -2 7 -10 15 -17 17 -8
3 -12 -1 -9 -9z"/>
<path d="M2465 1480 c3 -5 18 -10 33 -9 24 0 25 1 7 9 -28 12 -47 12 -40 0z"/>
<path d="M2452 1430 c0 -14 2 -19 5 -12 2 6 2 18 0 25 -3 6 -5 1 -5 -13z"/>
<path d="M2302 1348 c-5 -24 -13 -52 -17 -63 -6 -17 -4 -17 14 4 14 15 21 37
21 62 0 51 -6 49 -18 -3z"/>
<path d="M2270 1233 c1 -10 80 -47 86 -40 11 11 -37 47 -61 47 -14 0 -25 -3
-25 -7z"/>
<path d="M2193 1193 c-7 -2 -13 -9 -13 -14 0 -15 53 -6 58 9 4 12 -21 15 -45
5z"/>
<path d="M2087 1163 c-8 -7 11 -33 24 -33 5 0 9 9 9 20 0 19 -20 27 -33 13z"/>
<path d="M2787 2894 c-8 -8 1 -24 13 -24 4 0 10 7 14 15 5 15 -14 21 -27 9z"/>
<path d="M730 2876 c0 -17 24 -38 33 -29 15 15 6 43 -13 43 -11 0 -20 -6 -20
-14z"/>
<path d="M2993 2627 c-43 -21 -53 -43 -31 -65 15 -15 53 -16 79 -2 22 12 25
48 7 72 -12 15 -17 14 -55 -5z"/>
<path d="M432 1831 c-10 -6 -9 -10 7 -14 14 -3 21 0 21 9 0 16 -9 18 -28 5z"/>
<path d="M3072 1624 c-43 -30 -22 -70 41 -81 29 -4 37 -2 47 16 16 31 4 58
-32 70 -17 6 -32 11 -32 11 -1 0 -12 -7 -24 -16z"/>
<path d="M503 1535 c-54 -23 -41 -85 17 -85 51 0 82 68 41 90 -23 12 -19 12
-58 -5z"/>
<path d="M2940 1320 c-14 -27 1 -54 40 -70 27 -11 33 -10 50 5 11 10 20 24 20
32 0 23 -39 53 -70 53 -19 0 -33 -7 -40 -20z"/>
<path d="M696 1164 c-8 -21 -4 -25 14 -14 11 7 12 12 4 20 -8 8 -13 7 -18 -6z"/>
<path d="M1336 724 c-10 -26 -7 -34 13 -34 20 0 35 25 25 41 -9 14 -31 10 -38
-7z"/>
<path d="M1437 663 c-12 -11 -8 -23 8 -23 8 0 15 7 15 15 0 16 -12 20 -23 8z"/>
<path d="M2040 630 c0 -11 7 -20 15 -20 13 0 14 4 5 20 -6 11 -13 20 -15 20
-3 0 -5 -9 -5 -20z"/>
<path d="M9187 3049 c-298 -41 -492 -281 -448 -552 29 -174 119 -265 402 -407
68 -35 148 -78 177 -96 126 -81 156 -237 66 -343 -46 -54 -104 -74 -192 -69
-80 4 -151 40 -189 96 -26 40 -63 146 -77 227 l-11 60 -80 0 -80 0 -7 -200
c-3 -110 -8 -219 -9 -243 -1 -23 2 -47 7 -51 14 -14 177 -51 273 -63 114 -14
327 -4 417 20 171 46 306 166 363 323 38 104 31 280 -15 371 -62 125 -139 187
-388 313 -91 46 -181 95 -200 110 -55 42 -79 88 -80 154 -2 127 94 196 248
177 112 -14 180 -95 215 -258 l18 -83 79 0 79 0 0 225 0 225 -129 32 c-144 37
-317 49 -439 32z"/>
<path d="M3877 3013 c-11 -10 -8 -111 3 -118 6 -4 52 -15 102 -25 50 -11 99
-26 107 -35 14 -14 16 -76 18 -518 1 -276 0 -546 -4 -599 l-6 -97 -36 -12
c-20 -7 -70 -20 -111 -29 l-75 -16 -3 -54 c-2 -29 1 -57 6 -62 9 -9 1309 -15
1318 -5 3 3 33 90 66 193 101 313 100 296 6 292 l-63 -3 -70 -107 c-39 -59
-82 -119 -95 -134 -46 -50 -71 -54 -315 -54 l-225 0 0 598 c0 328 4 603 9 610
4 8 59 21 126 32 65 11 123 24 127 28 5 5 8 33 6 63 l-3 54 -441 3 c-242 1
-444 -1 -447 -5z"/>
<path d="M5907 3013 c-4 -3 -7 -30 -7 -60 0 -62 5 -66 110 -77 36 -4 79 -11
97 -17 34 -11 36 -17 46 -114 6 -49 -12 -1072 -18 -1102 -7 -30 -33 -42 -134
-62 l-86 -17 -3 -53 c-2 -30 1 -58 6 -63 12 -12 652 -12 664 0 5 5 8 33 6 63
l-3 54 -67 12 c-107 19 -145 32 -154 51 -4 9 -9 217 -11 462 l-3 445 20 -40
c25 -50 209 -456 325 -715 48 -107 101 -226 118 -263 33 -74 48 -87 99 -87 43
0 72 20 88 62 7 18 43 101 80 183 37 83 96 213 130 290 61 138 80 181 199 445
l60 135 1 -375 c0 -206 -3 -412 -7 -458 -7 -100 -12 -105 -134 -129 -46 -9
-90 -20 -96 -26 -16 -11 -17 -103 -3 -112 18 -11 851 -8 862 3 5 5 8 31 6 58
-3 49 -3 49 -43 56 -132 25 -157 31 -177 48 l-23 18 0 579 c0 318 4 591 8 606
9 33 33 43 141 63 44 7 84 18 88 22 5 5 8 33 6 63 l-3 54 -319 0 -320 0 -17
-45 c-101 -264 -144 -364 -316 -735 -59 -129 -111 -231 -115 -227 -7 7 -91
188 -210 452 -82 180 -97 215 -176 410 l-59 145 -325 3 c-178 1 -327 -1 -331
-5z"/>
<path d="M4734 1136 c-10 -26 4 -48 28 -44 17 2 23 10 23 28 0 18 -6 26 -23
28 -13 2 -25 -3 -28 -12z"/>
<path d="M8833 1135 c-41 -18 -67 -66 -59 -111 7 -35 30 -56 102 -92 57 -29
74 -48 74 -82 0 -32 -31 -60 -65 -60 -32 0 -64 28 -73 63 -5 18 -16 33 -25 35
-14 3 -17 -5 -17 -51 0 -61 1 -63 79 -73 94 -12 161 32 161 107 0 45 -34 90
-82 109 -51 20 -98 59 -98 81 0 27 35 59 64 59 27 0 66 -42 66 -71 0 -11 7
-19 15 -19 11 0 15 13 15 54 0 52 -1 54 -31 60 -48 9 -91 7 -126 -9z"/>
<path d="M3300 1131 c0 -5 14 -12 30 -16 l30 -7 0 -154 0 -154 -30 -6 c-69
-14 -20 -24 119 -24 l149 0 16 40 c20 49 20 60 2 60 -8 0 -23 -16 -35 -35 -20
-35 -21 -35 -91 -35 l-71 0 3 153 3 152 33 10 c56 16 35 25 -63 25 -52 0 -95
-4 -95 -9z"/>
<path d="M5550 1132 c0 -4 15 -12 33 -17 l32 -10 3 -148 3 -149 -31 -11 c-50
-19 -35 -27 50 -27 47 0 80 4 80 10 0 6 -8 10 -18 10 -36 0 -42 20 -41 135 l1
110 64 -132 c40 -84 69 -133 79 -133 8 0 15 6 16 13 0 6 27 66 59 132 l58 120
1 -117 1 -116 -30 -7 c-58 -13 -29 -25 60 -25 89 0 118 12 60 25 l-30 7 0 153
0 153 30 7 c52 11 33 25 -35 25 -37 0 -65 -4 -65 -10 0 -6 -28 -68 -61 -138
l-61 -127 -24 50 c-13 28 -41 89 -64 138 l-40 87 -65 0 c-36 0 -65 -4 -65 -8z"/>
<path d="M8490 1071 c0 -5 -13 -22 -30 -38 -33 -31 -37 -43 -15 -43 12 0 15
-18 15 -99 0 -107 10 -131 53 -131 28 0 67 27 67 46 0 10 -7 13 -24 8 -32 -8
-46 18 -46 83 0 75 8 91 43 95 45 4 47 28 3 28 -33 0 -36 2 -36 30 0 20 -5 30
-15 30 -8 0 -15 -4 -15 -9z"/>
<path d="M9600 1071 c0 -5 -13 -22 -30 -38 -33 -31 -37 -43 -15 -43 12 0 15
-18 15 -99 0 -107 10 -131 53 -131 28 0 67 27 67 46 0 10 -7 13 -24 8 -32 -8
-46 18 -46 83 0 75 8 91 43 95 45 4 47 28 3 28 -33 0 -36 2 -36 30 0 20 -5 30
-15 30 -8 0 -15 -4 -15 -9z"/>
<path d="M3730 1018 c-100 -53 -90 -227 14 -253 31 -7 45 -5 74 10 61 34 74
82 13 51 -16 -9 -39 -16 -50 -16 -26 0 -61 46 -61 81 0 28 0 28 73 31 72 3 72
3 75 33 2 17 -3 38 -11 49 -17 23 -93 32 -127 14z m75 -38 c15 -17 16 -20 2
-25 -8 -4 -32 -5 -53 -3 l-39 3 23 23 c27 27 44 28 67 2z"/>
<path d="M3973 1019 c-28 -8 -33 -14 -33 -39 0 -37 16 -38 42 -5 23 30 53 32
68 6 17 -33 12 -41 -37 -62 -64 -27 -93 -56 -93 -91 0 -57 68 -88 117 -53 18
13 22 13 33 0 17 -21 53 -19 73 3 24 26 21 42 -5 39 -22 -2 -23 1 -26 88 -2
77 -5 92 -23 108 -23 18 -65 21 -116 6z m87 -149 c0 -60 -72 -95 -78 -38 -3
22 3 32 30 48 44 26 48 25 48 -10z"/>
<path d="M4208 1013 c-41 -17 -50 -33 -18 -33 19 0 20 -7 20 -89 0 -81 -2 -90
-20 -96 -41 -13 -18 -25 50 -25 68 0 91 12 50 25 -25 8 -34 42 -27 102 6 56
37 93 62 73 19 -16 25 -10 28 26 2 23 -2 30 -21 32 -13 2 -32 -4 -43 -14 -17
-16 -19 -16 -19 -1 0 20 -13 20 -62 0z"/>
<path d="M4428 1013 c-41 -17 -50 -33 -18 -33 19 0 20 -7 20 -89 0 -81 -2 -90
-20 -96 -41 -13 -18 -25 50 -25 40 0 70 4 70 10 0 6 -7 10 -15 10 -24 0 -38
39 -33 96 5 56 28 94 58 94 31 0 40 -23 40 -101 0 -69 -2 -78 -20 -84 -41 -13
-18 -25 50 -25 72 0 87 8 48 25 -21 9 -23 17 -26 105 -2 82 -5 97 -23 113 -26
21 -67 22 -97 1 -20 -14 -22 -14 -22 0 0 19 -13 19 -62 -1z"/>
<path d="M4738 1013 c-42 -18 -48 -28 -18 -36 18 -5 20 -14 20 -86 0 -70 -3
-83 -20 -93 -34 -21 -23 -28 45 -28 63 0 85 12 45 25 -18 6 -20 15 -20 121 0
63 -3 114 -7 113 -5 -1 -25 -8 -45 -16z"/>
<path d="M4888 1013 c-41 -17 -50 -33 -18 -33 19 0 20 -7 20 -89 0 -81 -2 -90
-20 -96 -41 -13 -18 -25 50 -25 40 0 70 4 70 10 0 6 -7 10 -15 10 -24 0 -38
39 -33 96 5 56 28 94 58 94 31 0 40 -23 40 -101 0 -69 -2 -78 -20 -84 -41 -13
-18 -25 50 -25 72 0 87 8 48 25 -21 9 -23 17 -26 105 -2 82 -5 97 -23 113 -26
21 -67 22 -97 1 -20 -14 -22 -14 -22 0 0 19 -13 19 -62 -1z"/>
<path d="M5224 1021 c-52 -23 -72 -103 -35 -140 19 -19 19 -20 0 -37 -21 -19
-25 -44 -8 -61 8 -8 6 -15 -10 -25 -24 -15 -28 -59 -7 -77 21 -18 98 -24 145
-11 58 15 91 49 91 94 0 45 -20 56 -104 56 -39 0 -66 4 -66 10 0 12 10 16 63
25 54 9 79 40 75 93 -3 35 0 42 14 42 10 0 18 7 18 15 0 10 -10 15 -27 15 -16
0 -50 2 -78 5 -27 3 -60 1 -71 -4z m74 -33 c7 -7 12 -28 12 -48 0 -55 -32 -77
-64 -44 -19 18 -21 75 -4 92 7 7 19 12 28 12 9 0 21 -5 28 -12z m50 -245 c7
-46 -96 -74 -131 -35 -15 17 -15 20 -1 41 14 19 23 22 72 19 50 -3 57 -6 60
-25z"/>
<path d="M6143 1019 c-28 -8 -33 -14 -33 -39 0 -37 16 -38 42 -5 23 30 53 32
68 6 17 -33 12 -41 -37 -62 -64 -27 -93 -56 -93 -91 0 -57 68 -88 117 -53 18
13 22 13 33 0 17 -21 53 -19 73 3 24 26 21 42 -5 39 -22 -2 -23 1 -26 88 -2
77 -5 92 -23 108 -23 18 -65 21 -116 6z m87 -149 c0 -60 -72 -95 -78 -38 -3
22 3 32 30 48 44 26 48 25 48 -10z"/>
<path d="M6388 1013 c-41 -17 -50 -33 -18 -33 19 0 20 -7 20 -89 0 -81 -2 -90
-20 -96 -41 -13 -18 -25 50 -25 40 0 70 4 70 10 0 6 -7 10 -15 10 -24 0 -38
39 -33 96 5 56 28 94 58 94 31 0 40 -23 40 -101 0 -69 -2 -78 -20 -84 -41 -13
-18 -25 50 -25 72 0 87 8 48 25 -21 9 -23 17 -26 105 -2 82 -5 97 -23 113 -26
21 -67 22 -97 1 -20 -14 -22 -14 -22 0 0 19 -13 19 -62 -1z"/>
<path d="M6713 1019 c-28 -8 -33 -14 -33 -39 0 -37 16 -38 42 -5 23 30 53 32
68 6 17 -33 12 -41 -37 -62 -64 -27 -93 -56 -93 -91 0 -57 68 -88 117 -53 18
13 22 13 33 0 17 -21 53 -19 73 3 24 26 21 42 -5 39 -22 -2 -23 1 -26 88 -2
77 -5 92 -23 108 -23 18 -65 21 -116 6z m87 -149 c0 -60 -72 -95 -78 -38 -3
22 3 32 30 48 44 26 48 25 48 -10z"/>
<path d="M6984 1021 c-52 -23 -72 -103 -35 -140 19 -19 19 -20 0 -37 -21 -19
-25 -44 -8 -61 8 -8 6 -15 -10 -25 -24 -15 -28 -59 -7 -77 21 -18 98 -24 145
-11 58 15 91 49 91 94 0 45 -20 56 -104 56 -39 0 -66 4 -66 10 0 12 10 16 63
25 54 9 79 40 75 93 -3 35 0 42 14 42 10 0 18 7 18 15 0 10 -10 15 -27 15 -16
0 -50 2 -78 5 -27 3 -60 1 -71 -4z m74 -33 c7 -7 12 -28 12 -48 0 -55 -32 -77
-64 -44 -19 18 -21 75 -4 92 7 7 19 12 28 12 9 0 21 -5 28 -12z m50 -245 c7
-46 -96 -74 -131 -35 -15 17 -15 20 -1 41 14 19 23 22 72 19 50 -3 57 -6 60
-25z"/>
<path d="M7250 1018 c-100 -53 -90 -227 14 -253 31 -7 45 -5 74 10 61 34 74
82 13 51 -16 -9 -39 -16 -50 -16 -26 0 -61 46 -61 81 0 28 0 28 73 31 72 3 72
3 75 33 2 17 -3 38 -11 49 -17 23 -93 32 -127 14z m75 -38 c15 -17 16 -20 2
-25 -8 -4 -32 -5 -53 -3 l-39 3 23 23 c27 27 44 28 67 2z"/>
<path d="M7473 1012 c-45 -17 -56 -32 -24 -32 11 0 22 -9 26 -20 10 -33 -6
-161 -21 -167 -33 -12 -9 -23 51 -23 62 0 87 12 46 23 -37 9 -39 129 -3 170
18 20 43 22 60 5 19 -19 16 -167 -3 -174 -34 -13 -11 -24 50 -24 62 0 87 12
47 22 -13 4 -21 18 -25 42 -12 74 14 146 53 146 31 0 40 -23 40 -101 0 -69 -2
-78 -20 -84 -41 -13 -18 -25 50 -25 40 0 70 4 70 10 0 6 -6 10 -14 10 -24 0
-29 20 -27 107 1 77 0 85 -23 108 -30 30 -74 33 -107 6 -24 -19 -25 -19 -48 0
-28 23 -69 24 -99 3 -20 -14 -22 -14 -22 0 0 19 -3 19 -57 -2z"/>
<path d="M7960 1018 c-100 -53 -90 -227 14 -253 31 -7 45 -5 74 10 61 34 74
82 13 51 -16 -9 -39 -16 -50 -16 -26 0 -61 46 -61 81 0 28 0 28 73 31 72 3 72
3 75 33 2 17 -3 38 -11 49 -17 23 -93 32 -127 14z m75 -38 c15 -17 16 -20 2
-25 -8 -4 -32 -5 -53 -3 l-39 3 23 23 c27 27 44 28 67 2z"/>
<path d="M8168 1013 c-41 -17 -50 -33 -18 -33 19 0 20 -7 20 -89 0 -81 -2 -90
-20 -96 -41 -13 -18 -25 50 -25 40 0 70 4 70 10 0 6 -7 10 -15 10 -24 0 -38
39 -33 96 5 56 28 94 58 94 31 0 40 -23 40 -101 0 -69 -2 -78 -20 -84 -41 -13
-18 -25 50 -25 72 0 87 8 48 25 -21 9 -23 17 -26 105 -2 82 -5 97 -23 113 -26
21 -67 22 -97 1 -20 -14 -22 -14 -22 0 0 19 -13 19 -62 -1z"/>
<path d="M9370 1002 c-49 -50 -40 -79 43 -126 41 -23 48 -32 45 -54 -2 -16
-10 -28 -21 -30 -21 -4 -57 24 -57 45 0 7 -6 13 -14 13 -14 0 -32 -67 -21 -78
3 -4 32 -6 64 -7 77 0 103 21 99 79 -3 34 -9 44 -38 63 -19 12 -46 31 -60 42
-24 19 -24 21 -8 37 14 15 22 16 43 6 14 -6 25 -18 25 -27 0 -26 27 -16 33 13
7 35 -2 43 -57 49 -40 5 -48 2 -76 -25z"/>
<path d="M9790 1018 c-100 -53 -90 -227 14 -253 31 -7 45 -5 74 10 61 34 74
82 13 51 -16 -9 -39 -16 -50 -16 -26 0 -61 46 -61 81 0 28 0 28 73 31 72 3 72
3 75 33 2 17 -3 38 -11 49 -17 23 -93 32 -127 14z m75 -38 c15 -17 16 -20 2
-25 -8 -4 -32 -5 -53 -3 l-39 3 23 23 c27 27 44 28 67 2z"/>
<path d="M10003 1012 c-45 -17 -56 -32 -24 -32 11 0 22 -9 26 -20 10 -33 -6
-161 -21 -167 -33 -12 -9 -23 51 -23 62 0 87 12 46 23 -37 9 -39 129 -3 170
18 20 43 22 60 5 19 -19 16 -167 -3 -174 -34 -13 -11 -24 50 -24 62 0 87 12
47 22 -13 4 -21 18 -25 42 -12 74 14 146 53 146 31 0 40 -23 40 -101 0 -69 -2
-78 -20 -84 -41 -13 -18 -25 50 -25 40 0 70 4 70 10 0 6 -6 10 -14 10 -24 0
-29 20 -27 107 1 77 0 85 -23 108 -30 30 -74 33 -107 6 -24 -19 -25 -19 -48 0
-28 23 -69 24 -99 3 -20 -14 -22 -14 -22 0 0 19 -3 19 -57 -2z"/>
<path d="M9050 1013 c0 -3 7 -14 15 -23 9 -10 36 -62 60 -115 42 -94 43 -99
29 -127 -18 -36 -36 -43 -64 -28 -27 15 -33 9 -24 -25 8 -31 24 -40 59 -31 34
9 50 37 107 189 27 72 55 135 63 140 28 15 15 27 -30 27 -45 0 -54 -7 -35 -26
8 -8 4 -30 -13 -74 l-23 -63 -28 64 c-24 56 -26 65 -12 75 27 19 18 24 -44 24
-33 0 -60 -3 -60 -7z"/>
</g>
</svg>
