<svg xmlns="http://www.w3.org/2000/svg" xmlns:xlink="http://www.w3.org/1999/xlink" width="3000" zoomAndPan="magnify" viewBox="0 0 2250 2250.000011" height="3000" preserveAspectRatio="xMidYMid meet" version="1.0"><path fill="#0062ff" d="M 811.078125 281.125 C 764.222656 332.664062 675.199219 374.832031 609.605469 374.832031 C 394.074219 374.832031 375.332031 435.742188 375.332031 1227.578125 C 375.332031 1906.964844 380.019531 1967.875 464.355469 2014.730469 C 515.894531 2038.15625 820.449219 2061.582031 1143.742188 2061.582031 C 1612.285156 2061.582031 1743.476562 2047.527344 1799.699219 1986.617188 C 1860.609375 1925.707031 1874.667969 1789.828125 1874.667969 1236.949219 C 1874.667969 857.429688 1851.238281 515.394531 1827.8125 463.855469 C 1795.015625 407.632812 1729.417969 374.832031 1649.765625 374.832031 C 1579.484375 374.832031 1485.777344 332.664062 1438.921875 281.125 C 1378.011719 210.84375 1303.046875 187.417969 1125 187.417969 C 946.953125 187.417969 871.988281 210.84375 811.078125 281.125 Z M 1359.269531 398.261719 C 1359.269531 449.800781 1303.046875 468.542969 1125 468.542969 C 946.953125 468.542969 890.730469 449.800781 890.730469 398.261719 C 890.730469 346.722656 946.953125 327.980469 1125 327.980469 C 1303.046875 327.980469 1359.269531 346.722656 1359.269531 398.261719 Z M 1640.394531 951.140625 C 1640.394531 988.625 1588.855469 1063.589844 1523.261719 1124.5 C 1424.867188 1213.523438 1382.699219 1227.578125 1321.789062 1190.097656 C 1279.617188 1161.984375 1232.765625 1101.074219 1223.394531 1054.21875 C 1214.023438 988.625 1232.765625 974.566406 1307.730469 997.992188 C 1359.269531 1012.050781 1424.867188 993.308594 1457.664062 955.824219 C 1527.945312 871.488281 1640.394531 871.488281 1640.394531 951.140625 Z M 1125 1054.21875 C 1125 1110.445312 1064.089844 1124.5 867.300781 1124.5 C 670.515625 1124.5 609.605469 1110.445312 609.605469 1054.21875 C 609.605469 997.992188 670.515625 983.9375 867.300781 983.9375 C 1064.089844 983.9375 1125 997.992188 1125 1054.21875 Z M 1640.394531 1419.679688 C 1640.394531 1457.164062 1588.855469 1532.132812 1523.261719 1593.042969 C 1424.867188 1682.066406 1382.699219 1696.121094 1321.789062 1658.636719 C 1279.617188 1630.523438 1232.765625 1569.613281 1223.394531 1522.761719 C 1214.023438 1457.164062 1232.765625 1443.109375 1307.730469 1466.535156 C 1359.269531 1480.59375 1424.867188 1461.851562 1457.664062 1424.367188 C 1527.945312 1340.03125 1640.394531 1340.03125 1640.394531 1419.679688 Z M 1125 1522.761719 C 1125 1578.984375 1064.089844 1593.042969 867.300781 1593.042969 C 670.515625 1593.042969 609.605469 1578.984375 609.605469 1522.761719 C 609.605469 1466.535156 670.515625 1452.480469 867.300781 1452.480469 C 1064.089844 1452.480469 1125 1466.535156 1125 1522.761719 Z M 1125 1522.761719 " fill-opacity="1" fill-rule="nonzero"/></svg>