<svg xmlns="http://www.w3.org/2000/svg" xmlns:xlink="http://www.w3.org/1999/xlink" width="500" zoomAndPan="magnify" viewBox="0 0 375 374.999991" height="500" preserveAspectRatio="xMidYMid meet" version="1.0"><defs><clipPath id="6f6b10312b"><path d="M 21.484375 34 L 353.644531 34 L 353.644531 340.4375 L 21.484375 340.4375 Z M 21.484375 34 " clip-rule="nonzero"/></clipPath><clipPath id="a038a214e3"><path d="M 342.832031 226.394531 L 299.113281 301.542969 C 285.101562 325.625 259.34375 340.4375 231.480469 340.4375 L 143.519531 340.4375 C 115.65625 340.4375 89.898438 325.625 75.886719 301.542969 L 32.167969 226.394531 C 18.175781 202.351562 18.175781 172.648438 32.167969 148.605469 L 75.886719 73.457031 C 89.898438 49.375 115.65625 34.5625 143.519531 34.5625 L 231.480469 34.5625 C 259.34375 34.5625 285.101562 49.375 299.113281 73.457031 L 342.832031 148.605469 C 356.824219 172.648438 356.824219 202.351562 342.832031 226.394531 Z M 342.832031 226.394531 " clip-rule="nonzero"/></clipPath><clipPath id="82a7189a15"><path d="M 21 34.5625 L 354 34.5625 L 354 340.433594 L 21 340.433594 Z M 21 34.5625 " clip-rule="nonzero"/></clipPath><clipPath id="6a8eef50b1"><path d="M 342.828125 226.394531 L 299.109375 301.539062 C 285.097656 325.617188 259.339844 340.433594 231.476562 340.433594 L 143.515625 340.433594 C 115.65625 340.433594 89.898438 325.617188 75.886719 301.539062 L 32.167969 226.394531 C 18.175781 202.347656 18.175781 172.644531 32.167969 148.601562 L 75.886719 73.457031 C 89.898438 49.378906 115.65625 34.5625 143.515625 34.5625 L 231.476562 34.5625 C 259.339844 34.5625 285.097656 49.378906 299.109375 73.457031 L 342.828125 148.601562 C 356.816406 172.644531 356.816406 202.347656 342.828125 226.394531 Z M 342.828125 226.394531 " clip-rule="nonzero"/></clipPath><clipPath id="26a8332a07"><path d="M 26 218 L 111 218 L 111 301 L 26 301 Z M 26 218 " clip-rule="nonzero"/></clipPath><clipPath id="4d016ead24"><path d="M 81.636719 218.179688 L 110.957031 268.835938 L 55.96875 300.660156 L 26.648438 250.003906 Z M 81.636719 218.179688 " clip-rule="nonzero"/></clipPath><clipPath id="f511b180da"><path d="M 38 218 L 70 218 L 70 250 L 38 250 Z M 38 218 " clip-rule="nonzero"/></clipPath><clipPath id="d84ec1141c"><path d="M 59.578125 213.378906 L 74.636719 239.398438 L 48.617188 254.457031 L 33.5625 228.4375 Z M 59.578125 213.378906 " clip-rule="nonzero"/></clipPath><clipPath id="f8c7f1c4ab"><path d="M 59.578125 213.378906 L 74.636719 239.398438 L 48.617188 254.457031 L 33.5625 228.4375 Z M 59.578125 213.378906 " clip-rule="nonzero"/></clipPath><clipPath id="d93fab0e34"><path d="M 68 269 L 99 269 L 99 300 L 68 300 Z M 68 269 " clip-rule="nonzero"/></clipPath><clipPath id="6191109904"><path d="M 88.929688 264.09375 L 103.984375 290.109375 L 77.96875 305.167969 L 62.910156 279.152344 Z M 88.929688 264.09375 " clip-rule="nonzero"/></clipPath><clipPath id="2f8bf4d7ea"><path d="M 88.929688 264.09375 L 103.984375 290.109375 L 77.96875 305.167969 L 62.910156 279.152344 Z M 88.929688 264.09375 " clip-rule="nonzero"/></clipPath><clipPath id="36117824c1"><path d="M 269 84 L 355 84 L 355 167 L 269 167 Z M 269 84 " clip-rule="nonzero"/></clipPath><clipPath id="c54b3c9bf5"><path d="M 324.972656 84.46875 L 354.292969 135.125 L 299.300781 166.949219 L 269.984375 116.292969 Z M 324.972656 84.46875 " clip-rule="nonzero"/></clipPath><clipPath id="3508556915"><path d="M 282 85 L 313 85 L 313 116 L 282 116 Z M 282 85 " clip-rule="nonzero"/></clipPath><clipPath id="5a14677ec7"><path d="M 302.914062 79.667969 L 317.96875 105.6875 L 291.953125 120.746094 L 276.894531 94.726562 Z M 302.914062 79.667969 " clip-rule="nonzero"/></clipPath><clipPath id="cf9d7d0844"><path d="M 302.914062 79.667969 L 317.96875 105.6875 L 291.953125 120.746094 L 276.894531 94.726562 Z M 302.914062 79.667969 " clip-rule="nonzero"/></clipPath><clipPath id="f93c8e2db5"><path d="M 311 135 L 342 135 L 342 167 L 311 167 Z M 311 135 " clip-rule="nonzero"/></clipPath><clipPath id="0e3fdafee7"><path d="M 332.261719 130.382812 L 347.320312 156.398438 L 321.304688 171.457031 L 306.246094 145.441406 Z M 332.261719 130.382812 " clip-rule="nonzero"/></clipPath><clipPath id="5dc6835a20"><path d="M 332.261719 130.382812 L 347.320312 156.398438 L 321.304688 171.457031 L 306.246094 145.441406 Z M 332.261719 130.382812 " clip-rule="nonzero"/></clipPath><clipPath id="7fbf646bc1"><path d="M 107.582031 106.429688 L 267.480469 106.429688 L 267.480469 253.671875 L 107.582031 253.671875 Z M 107.582031 106.429688 " clip-rule="nonzero"/></clipPath><clipPath id="64d042baa3"><path d="M 261.851562 199.5 L 241.648438 234.226562 C 234.644531 246.265625 221.765625 253.671875 207.835938 253.671875 L 167.164062 253.671875 C 153.234375 253.671875 140.355469 246.265625 133.351562 234.226562 L 113.148438 199.5 C 106.152344 187.476562 106.152344 172.625 113.148438 160.605469 L 133.351562 125.878906 C 140.355469 113.835938 153.234375 106.429688 167.164062 106.429688 L 207.835938 106.429688 C 221.765625 106.429688 234.644531 113.835938 241.648438 125.878906 L 261.851562 160.605469 C 268.847656 172.625 268.847656 187.476562 261.851562 199.5 Z M 261.851562 199.5 " clip-rule="nonzero"/></clipPath><clipPath id="ad7d716d47"><path d="M 107.1875 106.429688 L 267.804688 106.429688 L 267.804688 253.429688 L 107.1875 253.429688 Z M 107.1875 106.429688 " clip-rule="nonzero"/></clipPath><clipPath id="cf6cb2eda7"><path d="M 261.84375 199.496094 L 241.640625 234.21875 C 234.636719 246.257812 221.757812 253.664062 207.828125 253.664062 L 167.164062 253.664062 C 153.234375 253.664062 140.355469 246.257812 133.347656 234.21875 L 113.144531 199.496094 C 106.152344 187.472656 106.152344 172.621094 113.144531 160.601562 L 133.347656 125.878906 C 140.355469 113.835938 153.234375 106.429688 167.164062 106.429688 L 207.828125 106.429688 C 221.757812 106.429688 234.636719 113.835938 241.640625 125.878906 L 261.84375 160.601562 C 268.839844 172.621094 268.839844 187.472656 261.84375 199.496094 Z M 261.84375 199.496094 " clip-rule="nonzero"/></clipPath></defs><rect x="-37.5" width="450" fill="#ffffff" y="-37.499999" height="449.999989" fill-opacity="1"/><rect x="-37.5" width="450" fill="#f2f2f2" y="-37.499999" height="449.999989" fill-opacity="1"/><g clip-path="url(#6f6b10312b)"><g clip-path="url(#a038a214e3)"><path fill="#f2f2f2" d="M 9.535156 34.5625 L 365.59375 34.5625 L 365.59375 340.4375 L 9.535156 340.4375 Z M 9.535156 34.5625 " fill-opacity="1" fill-rule="nonzero"/></g></g><g clip-path="url(#82a7189a15)"><g clip-path="url(#6a8eef50b1)"><path stroke-linecap="butt" transform="matrix(0.75, 0, 0, 0.75, 9.536221, 34.562708)" fill="none" stroke-linejoin="miter" d="M 444.389235 255.775781 L 386.097564 355.968496 C 367.415271 388.072665 333.071519 407.827875 295.920475 407.827875 L 178.639217 407.827875 C 141.493381 407.827875 107.149629 388.072665 88.467336 355.968496 L 30.175666 255.775781 C 11.519414 223.713279 11.519414 184.10911 30.175666 152.051816 L 88.467336 51.859101 C 107.149629 19.754933 141.493381 -0.000277081 178.639217 -0.000277081 L 295.920475 -0.000277081 C 333.071519 -0.000277081 367.415271 19.754933 386.097564 51.859101 L 444.389235 152.051816 C 463.040277 184.10911 463.040277 223.713279 444.389235 255.775781 Z M 444.389235 255.775781 " stroke="#0062ff" stroke-width="80" stroke-opacity="1" stroke-miterlimit="4"/></g></g><g clip-path="url(#26a8332a07)"><g clip-path="url(#4d016ead24)"><path fill="#f2f2f2" d="M 81.636719 218.179688 L 110.957031 268.835938 L 55.945312 300.675781 L 26.625 250.015625 Z M 81.636719 218.179688 " fill-opacity="1" fill-rule="nonzero"/></g></g><g clip-path="url(#f511b180da)"><g clip-path="url(#d84ec1141c)"><g clip-path="url(#f8c7f1c4ab)"><path fill="#0062ff" d="M 67.160156 226.480469 C 71.351562 233.71875 68.878906 242.976562 61.640625 247.167969 C 54.40625 251.355469 45.144531 248.886719 40.957031 241.648438 C 36.769531 234.410156 39.238281 225.152344 46.476562 220.960938 C 53.714844 216.773438 62.972656 219.246094 67.160156 226.480469 Z M 67.160156 226.480469 " fill-opacity="1" fill-rule="nonzero"/></g></g></g><g clip-path="url(#d93fab0e34)"><g clip-path="url(#6191109904)"><g clip-path="url(#2f8bf4d7ea)"><path fill="#0062ff" d="M 96.511719 277.195312 C 100.699219 284.433594 98.230469 293.691406 90.992188 297.878906 C 83.753906 302.066406 74.496094 299.597656 70.308594 292.359375 C 66.117188 285.121094 68.589844 275.863281 75.828125 271.675781 C 83.0625 267.488281 92.324219 269.957031 96.511719 277.195312 Z M 96.511719 277.195312 " fill-opacity="1" fill-rule="nonzero"/></g></g></g><g clip-path="url(#36117824c1)"><g clip-path="url(#c54b3c9bf5)"><path fill="#f2f2f2" d="M 324.972656 84.46875 L 354.292969 135.125 L 299.277344 166.964844 L 269.960938 116.304688 Z M 324.972656 84.46875 " fill-opacity="1" fill-rule="nonzero"/></g></g><g clip-path="url(#3508556915)"><g clip-path="url(#5a14677ec7)"><g clip-path="url(#cf9d7d0844)"><path fill="#0062ff" d="M 310.496094 92.773438 C 314.683594 100.007812 312.214844 109.265625 304.976562 113.457031 C 297.738281 117.644531 288.480469 115.175781 284.292969 107.9375 C 280.101562 100.699219 282.574219 91.441406 289.8125 87.253906 C 297.046875 83.0625 306.304688 85.535156 310.496094 92.773438 Z M 310.496094 92.773438 " fill-opacity="1" fill-rule="nonzero"/></g></g></g><g clip-path="url(#f93c8e2db5)"><g clip-path="url(#0e3fdafee7)"><g clip-path="url(#5dc6835a20)"><path fill="#0062ff" d="M 339.84375 143.484375 C 344.035156 150.722656 341.5625 159.980469 334.324219 164.167969 C 327.089844 168.359375 317.832031 165.886719 313.640625 158.648438 C 309.453125 151.414062 311.921875 142.152344 319.160156 137.964844 C 326.398438 133.777344 335.65625 136.246094 339.84375 143.484375 Z M 339.84375 143.484375 " fill-opacity="1" fill-rule="nonzero"/></g></g></g><g clip-path="url(#7fbf646bc1)"><g clip-path="url(#64d042baa3)"><path fill="#f2f2f2" d="M 101.832031 106.429688 L 273.230469 106.429688 L 273.230469 253.671875 L 101.832031 253.671875 Z M 101.832031 106.429688 " fill-opacity="1" fill-rule="nonzero"/></g></g><g clip-path="url(#ad7d716d47)"><g clip-path="url(#cf6cb2eda7)"><path stroke-linecap="butt" transform="matrix(0.75, 0, 0, 0.75, 101.831988, 106.430619)" fill="none" stroke-linejoin="miter" d="M 213.34903 124.087308 L 186.411528 170.384186 C 177.072986 186.436271 159.90111 196.311271 141.328192 196.311271 L 87.109438 196.311271 C 68.53652 196.311271 51.364644 186.436271 42.020893 170.384186 L 15.083392 124.087308 C 5.760474 108.056057 5.760474 88.253973 15.083392 72.22793 L 42.020893 25.931052 C 51.364644 9.873759 68.53652 -0.00124148 87.109438 -0.00124148 L 141.328192 -0.00124148 C 159.90111 -0.00124148 177.072986 9.873759 186.411528 25.931052 L 213.34903 72.22793 C 222.677155 88.253973 222.677155 108.056057 213.34903 124.087308 Z M 213.34903 124.087308 " stroke="#0062ff" stroke-width="80" stroke-opacity="1" stroke-miterlimit="4"/></g></g></svg>