<svg xmlns="http://www.w3.org/2000/svg" xmlns:xlink="http://www.w3.org/1999/xlink" width="500" zoomAndPan="magnify" viewBox="0 0 375 374.999991" height="500" preserveAspectRatio="xMidYMid meet" version="1.0"><defs><clipPath id="1dd335d8e5"><path d="M 21 34.5625 L 354 34.5625 L 354 340.433594 L 21 340.433594 Z M 21 34.5625 " clip-rule="nonzero"/></clipPath><clipPath id="1f0aa734c4"><path d="M 342.828125 226.394531 L 299.109375 301.539062 C 285.097656 325.617188 259.339844 340.433594 231.476562 340.433594 L 143.515625 340.433594 C 115.65625 340.433594 89.898438 325.617188 75.886719 301.539062 L 32.167969 226.394531 C 18.175781 202.351562 18.175781 172.644531 32.167969 148.601562 L 75.886719 73.457031 C 89.898438 49.378906 115.65625 34.5625 143.515625 34.5625 L 231.476562 34.5625 C 259.339844 34.5625 285.097656 49.378906 299.109375 73.457031 L 342.828125 148.601562 C 356.816406 172.644531 356.816406 202.351562 342.828125 226.394531 Z M 342.828125 226.394531 " clip-rule="nonzero"/></clipPath><clipPath id="bf6bc90cdf"><path d="M 26 218 L 111 218 L 111 301 L 26 301 Z M 26 218 " clip-rule="nonzero"/></clipPath><clipPath id="27c95313f4"><path d="M 81.636719 218.179688 L 110.957031 268.835938 L 55.96875 300.660156 L 26.648438 250.003906 Z M 81.636719 218.179688 " clip-rule="nonzero"/></clipPath><clipPath id="b214e8b4bd"><path d="M 38 218 L 70 218 L 70 250 L 38 250 Z M 38 218 " clip-rule="nonzero"/></clipPath><clipPath id="b616b55c52"><path d="M 59.578125 213.378906 L 74.636719 239.398438 L 48.617188 254.457031 L 33.5625 228.4375 Z M 59.578125 213.378906 " clip-rule="nonzero"/></clipPath><clipPath id="d5536142f8"><path d="M 59.578125 213.378906 L 74.636719 239.398438 L 48.617188 254.457031 L 33.5625 228.4375 Z M 59.578125 213.378906 " clip-rule="nonzero"/></clipPath><clipPath id="1b41a301aa"><path d="M 68 269 L 99 269 L 99 300 L 68 300 Z M 68 269 " clip-rule="nonzero"/></clipPath><clipPath id="ed5edd8f10"><path d="M 88.929688 264.09375 L 103.984375 290.109375 L 77.96875 305.167969 L 62.910156 279.152344 Z M 88.929688 264.09375 " clip-rule="nonzero"/></clipPath><clipPath id="dedb83f1fe"><path d="M 88.929688 264.09375 L 103.984375 290.109375 L 77.96875 305.167969 L 62.910156 279.152344 Z M 88.929688 264.09375 " clip-rule="nonzero"/></clipPath><clipPath id="6508a343e8"><path d="M 269 84 L 355 84 L 355 167 L 269 167 Z M 269 84 " clip-rule="nonzero"/></clipPath><clipPath id="bd9d80934b"><path d="M 324.972656 84.46875 L 354.292969 135.125 L 299.300781 166.949219 L 269.984375 116.292969 Z M 324.972656 84.46875 " clip-rule="nonzero"/></clipPath><clipPath id="37747bb7ef"><path d="M 282 85 L 313 85 L 313 116 L 282 116 Z M 282 85 " clip-rule="nonzero"/></clipPath><clipPath id="3af033fd40"><path d="M 302.914062 79.667969 L 317.96875 105.6875 L 291.953125 120.746094 L 276.894531 94.726562 Z M 302.914062 79.667969 " clip-rule="nonzero"/></clipPath><clipPath id="8526e61d65"><path d="M 302.914062 79.667969 L 317.96875 105.6875 L 291.953125 120.746094 L 276.894531 94.726562 Z M 302.914062 79.667969 " clip-rule="nonzero"/></clipPath><clipPath id="7ca9e081ce"><path d="M 311 135 L 342 135 L 342 167 L 311 167 Z M 311 135 " clip-rule="nonzero"/></clipPath><clipPath id="ad5dcebd79"><path d="M 332.261719 130.382812 L 347.320312 156.398438 L 321.304688 171.457031 L 306.246094 145.441406 Z M 332.261719 130.382812 " clip-rule="nonzero"/></clipPath><clipPath id="f273518bb0"><path d="M 332.261719 130.382812 L 347.320312 156.398438 L 321.304688 171.457031 L 306.246094 145.441406 Z M 332.261719 130.382812 " clip-rule="nonzero"/></clipPath><clipPath id="ca0e1ec9e3"><path d="M 107.1875 106.429688 L 267.804688 106.429688 L 267.804688 253.429688 L 107.1875 253.429688 Z M 107.1875 106.429688 " clip-rule="nonzero"/></clipPath><clipPath id="b04d68fc8c"><path d="M 261.84375 199.496094 L 241.640625 234.21875 C 234.636719 246.257812 221.757812 253.664062 207.828125 253.664062 L 167.164062 253.664062 C 153.234375 253.664062 140.355469 246.257812 133.347656 234.21875 L 113.144531 199.496094 C 106.152344 187.472656 106.152344 172.621094 113.144531 160.601562 L 133.347656 125.878906 C 140.355469 113.835938 153.234375 106.429688 167.164062 106.429688 L 207.828125 106.429688 C 221.757812 106.429688 234.636719 113.835938 241.640625 125.878906 L 261.84375 160.601562 C 268.839844 172.621094 268.839844 187.472656 261.84375 199.496094 Z M 261.84375 199.496094 " clip-rule="nonzero"/></clipPath></defs><g clip-path="url(#1dd335d8e5)"><g clip-path="url(#1f0aa734c4)"><path stroke-linecap="butt" transform="matrix(0.75, 0, 0, 0.75, 9.536221, 34.562737)" fill="none" stroke-linejoin="miter" d="M 444.389235 255.775742 L 386.097564 355.968457 C 367.415271 388.072626 333.071519 407.827836 295.920475 407.827836 L 178.639217 407.827836 C 141.493381 407.827836 107.149629 388.072626 88.467336 355.968457 L 30.175666 255.775742 C 11.519414 223.718449 11.519414 184.109071 30.175666 152.051777 L 88.467336 51.859062 C 107.149629 19.754894 141.493381 -0.000316121 178.639217 -0.000316121 L 295.920475 -0.000316121 C 333.071519 -0.000316121 367.415271 19.754894 386.097564 51.859062 L 444.389235 152.051777 C 463.040277 184.109071 463.040277 223.718449 444.389235 255.775742 Z M 444.389235 255.775742 " stroke="#0062ff" stroke-width="80" stroke-opacity="1" stroke-miterlimit="4"/></g></g><g clip-path="url(#bf6bc90cdf)"><g clip-path="url(#27c95313f4)"><path fill="#ffffff" d="M 81.636719 218.179688 L 110.957031 268.835938 L 55.945312 300.675781 L 26.625 250.015625 Z M 81.636719 218.179688 " fill-opacity="1" fill-rule="nonzero"/></g></g><g clip-path="url(#b214e8b4bd)"><g clip-path="url(#b616b55c52)"><g clip-path="url(#d5536142f8)"><path fill="#0062ff" d="M 67.160156 226.480469 C 71.351562 233.71875 68.878906 242.976562 61.640625 247.167969 C 54.40625 251.355469 45.144531 248.886719 40.957031 241.648438 C 36.769531 234.410156 39.238281 225.152344 46.476562 220.960938 C 53.714844 216.773438 62.972656 219.246094 67.160156 226.480469 Z M 67.160156 226.480469 " fill-opacity="1" fill-rule="nonzero"/></g></g></g><g clip-path="url(#1b41a301aa)"><g clip-path="url(#ed5edd8f10)"><g clip-path="url(#dedb83f1fe)"><path fill="#0062ff" d="M 96.511719 277.195312 C 100.699219 284.433594 98.230469 293.691406 90.992188 297.878906 C 83.753906 302.066406 74.496094 299.597656 70.308594 292.359375 C 66.117188 285.121094 68.589844 275.863281 75.828125 271.675781 C 83.0625 267.488281 92.324219 269.957031 96.511719 277.195312 Z M 96.511719 277.195312 " fill-opacity="1" fill-rule="nonzero"/></g></g></g><g clip-path="url(#6508a343e8)"><g clip-path="url(#bd9d80934b)"><path fill="#ffffff" d="M 324.972656 84.46875 L 354.292969 135.125 L 299.277344 166.964844 L 269.960938 116.304688 Z M 324.972656 84.46875 " fill-opacity="1" fill-rule="nonzero"/></g></g><g clip-path="url(#37747bb7ef)"><g clip-path="url(#3af033fd40)"><g clip-path="url(#8526e61d65)"><path fill="#0062ff" d="M 310.496094 92.773438 C 314.683594 100.007812 312.214844 109.265625 304.976562 113.457031 C 297.738281 117.644531 288.480469 115.175781 284.292969 107.9375 C 280.101562 100.699219 282.574219 91.441406 289.8125 87.253906 C 297.046875 83.0625 306.304688 85.535156 310.496094 92.773438 Z M 310.496094 92.773438 " fill-opacity="1" fill-rule="nonzero"/></g></g></g><g clip-path="url(#7ca9e081ce)"><g clip-path="url(#ad5dcebd79)"><g clip-path="url(#f273518bb0)"><path fill="#0062ff" d="M 339.84375 143.484375 C 344.035156 150.722656 341.5625 159.980469 334.324219 164.167969 C 327.089844 168.359375 317.832031 165.886719 313.640625 158.648438 C 309.453125 151.414062 311.921875 142.152344 319.160156 137.964844 C 326.398438 133.777344 335.65625 136.246094 339.84375 143.484375 Z M 339.84375 143.484375 " fill-opacity="1" fill-rule="nonzero"/></g></g></g><g clip-path="url(#ca0e1ec9e3)"><g clip-path="url(#b04d68fc8c)"><path stroke-linecap="butt" transform="matrix(0.75, 0, 0, 0.75, 101.831988, 106.430611)" fill="none" stroke-linejoin="miter" d="M 213.34903 124.087318 L 186.411528 170.384196 C 177.072986 186.43628 159.90111 196.311281 141.328192 196.311281 L 87.109438 196.311281 C 68.53652 196.311281 51.364644 186.43628 42.020893 170.384196 L 15.083392 124.087318 C 5.760474 108.056067 5.760474 88.253982 15.083392 72.22794 L 42.020893 25.931061 C 51.364644 9.873769 68.53652 -0.00123188 87.109438 -0.00123188 L 141.328192 -0.00123188 C 159.90111 -0.00123188 177.072986 9.873769 186.411528 25.931061 L 213.34903 72.22794 C 222.677155 88.253982 222.677155 108.056067 213.34903 124.087318 Z M 213.34903 124.087318 " stroke="#0062ff" stroke-width="80" stroke-opacity="1" stroke-miterlimit="4"/></g></g></svg>